<svg xmlns="http://www.w3.org/2000/svg" width="494.23" height="210.422" viewBox="0 0 494.23 210.422">
  <g id="Group_159" data-name="Group 159" transform="translate(-4784.431 10.021)" opacity="0.429" style="mix-blend-mode: multiply;isolation: isolate">
    <g id="Group_157" data-name="Group 157" transform="translate(4784.431 -10.021)" style="isolation: isolate">
      <g id="Logo_Light" data-name="Logo Light" transform="translate(0)">
        <g id="TheAcademy-Logo-bw" transform="translate(0)">
          <g id="TheAcademy-Logo-bw-2">
            <path id="Path_1" data-name="Path 1" d="M124.789,219.62l.063-.09.21-.451.21-.482.21-.428.237-.428.027-.156-.09-.146-.119-.12-.129-.088-.156.027-.428.2-.451.2-.482.174-.451.147-.138.072-.09.146-.027.183.027.156.072.111.464.509.437.51.129.081.2.018.174-.063ZM150.1,278.346l.111-.027.451-.226.473-.237.437-.192.451-.183.129-.1.027-.174v-.164l-.045-.147-.138-.081-.451-.119-.473-.138-.482-.183-.437-.183-.156-.027-.165.045-.147.12-.081.137v.129l.027.692v.676l.045.147.138.147.174.063Zm-163.7-54.97-.1-.059-.482-.156-.5-.156-.451-.156-.451-.183h-.165l-.138.1-.11.129-.063.138.036.155.246.4.246.428.225.451.2.437.09.129.156.081h.192l.156-.036.1-.09.464-.521.464-.492.063-.137v-.2l-.081-.165Zm43.438-24.644v.21h.063l.566-.128.4-.1,1.312-.392.347-.147.309-.146.264-.174.273-.255.21-.273.183-.309.147-.291.119-.329.063-.361.036-.338V195l-.045-.356-.054-.338-.081-.347-.119-.338-.147-.291-.165-.282-.183-.282-.2-.273-.225-.264L32.679,192l-.273-.192-.291-.174-.3-.119-.338-.09-.347-.054h-.318l-.338.054-.347.081-.338.1-.584.156-.383.09-.383.155-.537.237-.045.036.045.027.072.054.045.081.183.629.054.255.11.374.09.383.072.53.09.383.129.356.174.509.473,1.614.129.374.165.491Zm-71.511,78.243.036-.11.054-.072.21-.054.785-.027h.764l.764.045.785.036.764-.045.246-.018.519.063.11.018.09.054.054.09.018.09.036.282-.027.392-.081.656.081.676v.282l-.045.374-.018.111-.054.054-.09.036-.11.018-.676.12-.676.045-.165.036-.108.054-.1.11-.018.11v.282l.036.282.09.246.054.054.147.036h.676l.676-.027,1.33.018.656.027.676.027.656.045.676.027h.663l.676-.027.183.054.129-.054.027-.638-.045-.656.018-.165.119-.072.246-.036h.41l.638.081h1.477l.072.09.054.32-.027.338-.063.692v1.378l.027,2.705.045.692v.3l-.063.374-.119.111H-29.2l-.62-.027-.6.045H-30.7l-.338-.063-.11-.036-.072-.054-.054-.21-.027-.374.018-.246v-.6l-.09-.054-.21.018-.656-.045h-.676l-.656-.045-.676-.045-3.341-.056h-.676l-.129.036-.09.054-.09.129-.018.11.036.338.045.356.036.165.147.072h.746l.41.027.318.063.128.036.072.054.072.09.036.129.027.356-.036.32-.063.676.027.656-.063.656-.036.128-.036.054-.072.036-.129.018-.764.027-.764-.054-.785.045-.764.045h-.821l-.764-.111-.11-.018-.072-.036-.036-.09-.018-.111-.063-.676.045-.692v-.692l-.027-.692.063-.676.045-.692v-.692l-.027-.692.09-2.061v-.692l.027-.692v-.692l-.018-1.369-.045-.692v-.356Zm13.714-18.537.11-.054.174.09.575.174.6.129.593.1.6.129.183-.036.063.072-.1.676-.192.676-.12.676-.419,2.029-.246,1.369-.072.71-.183.676H-26.5l-.192-.119-.611-.11-.593-.1-.611-.09-.575-.174-.21-.12-.054-.225.246-1.177-.072-.09-.165-.036-.848-.156-.83-.137-.174-.09-.1.036-.225.719-.119.758-.156.749-.347,1.495-.063.776.054.09h.187l.428.165.451.129.929.192.072-.1.174-.539.081-.593.018-.192.119-.09.676.081.656.174,1.321.237.183.018.09.119-.129.676-.21.676-.156.676-.147.676-.081.676-.063.692-.183.676-.156.676-.081.692-.21.676-.108.054-.183-.054-1.968-.41-.638-.246-.036-.081.09-.156.081-.5.063-.5.119-.183v-.09l-.692-.165-.74-.126-.7-.2-.676-.226-.728-.09-.7-.11-1.432-.3-.676-.183-.719-.11-.2.036-.119.183-.138.482-.156.465-.09.225-.183.072-.584-.12-.593-.2-.62-.054-.584-.12-.183-.156-.045-.237.09-.611.183-.611.225-1.249.165-.62.147-.62.108-.611.255-1.231.185-.568.09-.225.192-.09.575.155.584.237.593.063.593.081h.174l.036.081-.09.731-.11.719.072.09h.174l1.54.32.174.09.1-.036.225-.758.12-.776.356-1.531.225-.776.1-.785-.135-.072-.225.027-.744-.228-.764-.192-.165-.018-.119.09-.119.749-.119.739-.165.045-.225-.063-.577-.174-.566-.2-1.184-.21-.174.018-.045-.045.081-.692.192-.676.081-.676.1-.676.282-1.353.1-.676.119-.676.1-.676.21-.676.119-.018.21.12,1.175.246.6.063.593.081h.225l.09.12-.119.676-.156.638.036.225.192.1.647.192.692.081,2.029.419.676.12,1.33.392.676.137.692.063.225-.027.12-.183.137-.638Zm7.44-13.753.51.183.347.183.11.081.063.09.018.111-.018.138-.108.4-.119.273-.138.273-.183.383-1.276,3.037-.28.534-.183.374-.147.4-.174.557-.165.4-.41.92-.338.794-.246.53-.318.8-.246.53-.225.347-.072.128-.054.081-.1.036h-.119l-.347-.081-.451-.225-.676-.3-.437-.21-.309-.192-.11-.072-.063-.09-.045-.081v-.142l.09-.264.255-.32.081-.246v-.119l-.027-.09-.072-.072-.11-.09-.356-.21-.51-.237-.764-.3-.537-.165-.764-.3-1.276-.539-.5-.255-.746-.338-.5-.255-.392-.129-.133-.013-.09.027-.09.063-.072.09-.138.225-.11.356-.138.225-.063.09-.081.045h-.063l-.11-.027-.347-.081-.473-.138-.656-.273-.437-.225-.282-.165-.108-.063-.09-.072-.045-.081.018-.138.129-.392.318-.487.192-.365.383-.9.183-.392.237-.656.072-.273.419-1.039.273-.656.291-.647.108-.255.338-.749.138-.264.3-.643.255-.676.273-.656.128-.392.156-.566.192-.365.081-.09.09-.027h.1l.764.2.965.41.491.183.965.41.566.338.108.081.1.063.036.1v.12l-.081.338-.225.419-.156.32-.129.311-.2.428-.246.4-.081.045-.072.027h-.119l-.246-.045-.291-.183-.225-.11-.174-.072-.09-.018-.054.036-.225.437-.2.676-.156.464-.494,1.075-.174.451-.036.128.036.1.045.081.09.063.41.174.546.246.419.12.138.018h.1l.063-.054.081-.11.2-.32.108-.255.081-.246.156-.365.138-.374.081-.246.119-.237.273-.451.072-.09.081-.045h.124l.347.09.428.237.338.165.338.12.451.174.309.174.1.081.081.191-.018.138-.1.347-.264.437-.183.329-.119.338-.063.237-.21.584-.063.2.018.192.09.183.156.11.365.138.264.09.255.063.365.156.09.018h.072l.072-.027.045-.063.183-.473.225-.638.519-1.24.156-.32.192-.451.054-.072.045-.063.018-.054-.027-.072-.255-.165-.225-.072-.225-.054-.273-.174-.09-.072-.054-.063v-.1l.036-.129.119-.32.165-.437.138-.329.194-.561.081-.225.174-.311.081-.1.1-.054.11-.018.138.018.374.12.451.32.365.192.374.138.491.165.383.165Zm16.129-23.131.428.383.4.365.054.072.063.1v.2l-.036.09-.054.1-.884,1.112-.519.539-.537.575-.451.593-.473.6v.018l-.482.521-.473.53-.072.063-.09.045h-.144l-.108-.018-.129-.054-.692-.629-.374-.311-.365-.329-.09-.155-.027-.147.027-.119.1-.183.1-.119.054-.155-.027-.147-.045-.09-.063-.1-.063-.072-.072-.063-.246-.081-.225-.09-.119-.027h-.119l-.12.027-.138.1-.428.566-.4.566-1.075,1.1h0l-.41.51-.41.492-.063.192.081.192.147.237.129.226.1.081.11.045h.291l.119-.072.225-.273.108-.072.147-.054.174.027.165.063.383.329.383.3.365.329.356.3.129.138.027.174-.027.147-.081.129-.9,1.141-.983,1.177-1.057,1.141-.9,1.127-.081.072-.129.063h-.156l-.183-.1-.41-.347-.4-.365-.451-.338-.437-.32-.129-.138-.045-.183.036-.165.081-.128.575-.74.054-.128-.027-.147-.482-.994-.237-.593-.264-.611-.273-.575-.264-.584-.291-.584-.273-.575-.264-.593-.282-.6-.3-.575-.347-.6-.09-.1-.138-.018-.183.09-.451.548-.165.11-.183.018-.156-.054-.081-.045-.428-.338-.451-.347-.83-.692-.138-.164-.045-.21.072-.183.41-.509.383-.509.473-.482.9-.958.437-.491.794-1.066.027-.027.821-.92.1-.09.09-.045h.11l.119.027,1.231.4.71.183.676.182.692.138.7.156.676.183.676.192.676.21.676.192.676.225.656.237.676.225.656.21.62.128.593.11h.174l.11-.072.273-.329.273-.356.1-.063.119-.027h.318l.072.063.437.347ZM13.6,201.412l-.072-.09-.4-.325-.41-.329-.365-.311L12,200.026l-.147-.072-.165.045-.147.081-.11.111-.018.155.081.464.081.492.045.509.027.473.036.147.119.128.174.072.156.018.129-.045.62-.32.611-.291.108-.095.063-.192-.018-.183Zm9.244,1.605.264.521.246.482.027.09.018.12-.027.1-.036.081-.063.072-.09.072-1.231.719-.676.309-.7.347-.638.392-.676.392h-.018l-.638.311-.629.329-.09.027h-.1l-.129-.036-.09-.054-.1-.1-.419-.839-.237-.428-.225-.428-.036-.174.027-.147.072-.1.165-.138.129-.072.1-.119.027-.147v-.1l-.018-.12-.027-.09-.045-.081-.2-.165-.174-.165-.1-.072-.108-.045-.119-.018-.165.045-.6.374-.575.383-1.411.676h-.018l-.566.329-.557.311-.129.156v.21l.045.273.036.255.063.11.081.081.147.072.129.036.138-.027.309-.174.129-.027h.156l.156.081.147.137.246.437.255.419.225.437.225.41.072.174-.036.174-.081.128-.119.09-1.258.74-1.353.739-1.393.676-1.24.73-.11.036-.147.027-.156-.045-.138-.165-.264-.473-.246-.483-.3-.473-.291-.451-.072-.174.027-.183.09-.138.119-.09.8-.483.09-.1.027-.147-.09-1.1v-.638l-.027-.676-.045-.638-.036-.638-.063-.656-.054-.629-.036-.647-.045-.656-.072-.638-.1-.692-.054-.128-.119-.063-.2.027-.62.347-.192.045-.183-.054-.119-.1-.063-.072-.273-.464-.291-.482-.528-.949-.063-.2.036-.21.138-.137.566-.338.537-.338.62-.273,1.184-.566.584-.3,1.127-.71.036-.018,1.093-.566.129-.045h.1l.1.027.1.072,1,.812.593.419.575.41.593.374.6.392.566.41.557.419.566.437.557.419.557.465.528.451.548.451.537.428.528.347.519.311.156.045.129-.027.374-.21.383-.225.119-.018.119.018.1.027.108.045.09.036.045.081.291.483ZM5.877,212.236,6,212.29l.072.063.018.111-.027.146-.11.719-.21.656-.129.347-.11.338-.338.647-.4.575-.491.557-.464.557-.237.273-.264.237-.6.473-.593.4-.638.338-1.021.41-.676.246-.728.146h-.719l-.728-.054-.737-.09-.676-.192-.676-.291-.629-.347-.584-.41-.309-.255-.246-.237-.51-.5-.491-.566L-7.688,216l-.329-.629-.273-.676-.4-1.369-.045-.347-.018-.374.063-.365.147-.7.09-.71.183-.71.282-.647.374-.629.41-.584.451-.566.5-.51.566-.491.51-.383.537-.32.575-.311.584-.264.6-.183.647-.128.629-.036.62.018.183.018.054.027.347.392.21.282.2.3.318.392.347.392.273.237.264.264.291.41.054.129v.119l-.054.119-.072.111-.282.282-.776.593-.291.264-.428.338-.338.21-.128.054-.1.027H-1l-.129-.063-.338-.347-.2-.3-.156-.311-.327-.365-.119-.054-.09-.018h-.09l-.11.018-.365.156-.255.165-.2.165-.192.183-.3.246-.291.264-.237.273-.2.291-.165.329-.129.347-.072.374-.045.356-.036.347.036.365.063.365.1.356.12.32.156.338.183.338.225.329.255.273.3.246.3.21.282.2.356.192.329.165.347.129.365.063H-1.3l.365-.081,1.066-.329.676-.311.329-.246.268-.266.282-.311.255-.338.225-.365.183-.374.156-.374.128-.4.072-.4.063-.1.045-.063.072-.036.138-.018h.41l.557.054.428.081.41.054.566.036ZM23.1,193.454h-.138l-.1-.027-.09-.054-.054-.119-.119-.338-.1-.473-.11-.356-.119-.338-.138-.464-.045-.356v-.237l.027-.063.119-.072.365-.165.575-.09.4-.1.392-.119.255-.12.676-.237.392-.119.548-.147.4-.1.392-.138,1.33-.392.575-.11.4-.1.656-.21.338-.1.318-.054.692-.027.676.036h.347l.365.027.647.081.676.174.629.264.566.338.557.419.255.225.273.192.491.482.2.273.183.291.338.62.225.638.072.329.2.676.183.676.09.692-.027.692-.018.338-.027.71-.09.692-.119.329-.165.3-.347.611-.374.584-.451.539-.482.473-.857.6-.611.32-1.267.611-.338.119-.392.12-.546.183-.794.225-.528.192-.794.237-.282.045-1.066.282-1.33.374-.255.119-.264.1-.4.081h-.138l-.11-.027-.072-.054-.072-.12-.169-.352-.054-.237-.036-.246-.09-.365-.138-.329-.108-.237-.09-.225L24.953,201l.018-.147.036-.09.1-.072.119-.072.338-.119.5-.027.327-.137.036-.072-.036-.063-.063-.1-.054-.1-.138-.392-.192-.53-.246-.767-.392-1.33-.147-.539-.1-.41-.119-.392-.09-.557-.1-.4-.12-.392-.183-.53-.147-.5v-.1l-.018-.072-.081-.018-.338.063-.225.1-.237.129Zm30.436,3.2.09.539v.383l-.027.137-.045.1-.09.063-.129.054-.4.1-.3.036h-.3l-.428.027-3.271.347h-.6l-.41.027-.428.063-.575.12-.428.045-1,.09-.857.09-.584.045-.857.111-.584.045-.419-.027h-.21l-.081-.063-.045-.111-.09-.347-.018-.51-.054-.73-.036-.482.018-.356v-.138l.045-.1.045-.081.11-.054.273-.045.4.072.255-.045.108-.045.072-.063.027-.1.027-.138v-.419l-.045-.557-.1-.821-.119-.557-.108-.821-.138-1.368L42.2,190.6l-.063-.821-.027-.566-.081-.41-.054-.128-.063-.063-.1-.045-.119-.027h-.264l-.365.072h-.374l-.081-.045-.045-.054-.027-.11-.09-.347-.108-.473-.072-.71v-.5l.018-.356v-.126l.027-.119.045-.081.129-.054.41-.081.593.054h.41l.974-.1.428-.027.676-.11.273-.063,1.111-.138.71-.072.71-.054.273-.045.821-.072h.3l.692-.054.7-.09.71-.072.41-.081.566-.138h.41l.119.027.063.063.045.09.192.775.11,1.039.072.521.11,1.039-.027.656-.027.138v.11l-.063.081-.108.045-.327.09-.491.018-.356.018-.338.036-.464.036-.473-.027-.081-.045-.063-.045-.054-.11-.081-.237.018-.338v-.264l-.018-.183-.027-.09-.063-.027h-.507l-.676.147-.473.09-1.175.09-.482.072-.129.036-.063.072-.045.081v.11l.045.451.045.6.1.419.054.128.045.09.081.027.138.027.374.018.282-.027.255-.045.392-.036.383-.063.255-.045h.264l.528.018.119.027.081.045.045.111.09.347v.492l.018.374.054.356.072.482v.356l-.027.138-.129.164-.138.038-.347.072-.51-.018h-.374l-.347.054-.237.063-.611.1-.2.036-.156.11-.119.165-.018.192.063.392.045.273.063.255.036.392.027.09.027.072.063.045h.072l.5-.072.676-.11,1.339-.147.356-.018.482-.054h.225l.07-.05.027-.3-.045-.225-.063-.225.027-.32.027-.119.027-.07.09-.045.129-.036.338-.054.464-.063.356-.036.575-.12.237-.045h.356l.138.027.1.063.063.081.054.129.081.383-.054.557v.41l.063.383.09.521.045.41Zm20.949.428-.081.611-.045.62-.054.356-.063.255-.054.128-.063.09-.081.045-.156.063h-.334l-.309-.054-.647-.12-1.267-.09-.629-.12-.629-.138-.638-.027h-.656l-.629-.081-.6-.156-.183-.072-.036-.174-.036-.6.036-.62.018-.6.138-.611.054-.147.045-.072.119-.063.119-.027.5.063.5.054.156-.027h.09l.081-.1.027-.072.072-.73v-.73l.072-.73.183-1.45.108-.719-.045-.138-.09-.081H69.33l-.119.045-.557.53-.584.53-.546.566-.537.548-.51.575-.566.548-.156.072-.183-.018-.119-.09-.09-.081-.383-.451L64.6,193.1l-.282-.539-.3-.539-.365-.464-.365-.491-.264-.557-.174-.374-.09-.183-.09-.045-.119.027-.119.045-.045.072-.054.785-.036.767-.072.767-.054.785-.129.758-.036.785.027.12.027.1.09.063.108.045.519.036h.246l.273.045.09.045.081.081.018.21.018.6-.072.593v.62l-.081.611-.054.147-.063.063-.1.081-.119.027-.638-.027-.647-.1-.62-.155-.629-.138-.638.027H59.2l-1.276-.273-.62-.027-.611-.1-.237-.081-.072-.045-.027-.12v-.318l.063-.291.156-.6-.036-.62v-.356l.063-.237.129-.174.225-.054,1.166.155.129-.119.018-.21.045-.692.027-.692.081-.676.063-.676.1-.676.119-.676.027-.692v-.71l.1-.676.027-.692v-.226l-.027-.1-.09-.045-.225-.036-.318.027-.264.027-.291-.045-.072-.027-.1-.081-.045-.1-.027-.119v-.347l.045-.273.138-.593v-.884l.072-.347.108-.174.119-.027h.737l.647.1.638.045,1.9.192.656.027.629.063.1.063.081.138.365.5.329.521.6,1.111.383.509.383.492.174.338.108.237.365.491.063.063.108.045.12-.027.1-.063.5-.365.437-.451.848-.931.9-.884.392-.51.225-.282.192-.192.119-.1.156-.018.629.1.629.12.638.027.638.045,1.276.165.647-.027h.318l.338.072.09.027.147.09.063.12.027.12-.027.62-.119.629-.072.593-.174.584v.054l-.054.115-.1.027h-.09l-.491.027h-.492l-.225.036-.081.063-.027.111-.1.676v.692l-.063,1.387-.1.676-.081.676-.1.676-.081.692-.063.676.027.676.036.174.11.027.09.027.956.21.129.054.09.045.063.081.027.12Zm5.968,3.939-.108-.072-.072-.063-.027-.09v-.138l.192-.566.21-.584.156-.584.246-.566.054-.12.081-.072.119-.054h.1l.255.063.225.138.492.183.128.027.108-.027.11-.045.072-.09.273-.638.045-.374v-.676l-.054-.311-.225-.676-.183-.647-.174-.676-.451-1.285-.2-.656-.183-.647-.2-.627-.225-.676-.081-.183-.072-.063-.081-.045-.183-.054-.246-.1-.383-.21-.21-.128-.063-.1V189.5l.063-.311.09-.264.225-.575.156-.584.246-.566.072-.09.09-.045h.225l.492.1.246.1.719.273,1.432.509.737.2,1.495.374.4.111.318.165.108.081.036.072v.255l-.119.676-.225.629-.165.676-.282.62H86.1l-.11-.09-.1-.054h-.158l-.119.063-.072.11v.156l.183.766.183.749.063.237.09.129.183.063.167-.079.174-.12.611-.53.611-.548.072-.111v-.09l-.045-.09-.119-.072-.246-.027-.09-.128.018-.291.081-.365.255-.647.21-.638.318-.6.108-.165.11-.027h.09l.737.147.719.255,1.441.473,1.45.509.719.225.71.291.081.045.072.063.027.147v.072l-.054.3-.108.282-.237.557-.138.6-.225.539-.045.081-.09.11-.09.027h-.119l-.225-.018-.237-.063-.437-.165-.192-.063-.192.036-.11.081-.41.338-.519.437-.528.4-.528.419-.51.428-.5.451-.575.365-.557.374-.974.94-.081.072-.072.1-.2.548-.192.53v.138l.036.129.081.1.11.072.482.1.428.183.1.072.072.081.045.111-.018.11-.156.584-.246.566-.156.6-.225.557-.045.063-.09.11-.128.018h-.09l-.629-.128-.62-.225-1.175-.512-.611-.183-.629-.165-1.213-.437-.647-.137-.246-.081Zm30.916,14.562-.473.647-.183.1-.225-.081-.62-.365-.575-.451-.593-.392-1.184-.821-1.148-.839-.575-.451-.584-.41-.593-.392-.6-.374-.629-.374-1.148-.839-.629-.374-.575-.419-.119-.225.054-.21.309-.539.4-.473.309-.51.4-.451.174-.156.225.027.356.246.329.273.147.081.129-.054.509-.539.419-.6.374-.629.383-.62.4-.611.419-.6.451-.584.464-.566.451-.584.383-.62-.072-.119-.2-.072-.383-.264-.338-.329-.147-.192.018-.192.338-.521.338-.464.318-.53.383-.482.192-.12.237.054.528.347.482.428,1.084.71.5.392.51.383.546.338,1.127.647.5.392.119.225-.036.246-.356.509-.428.451-.309.539-.356.483-.192.119-.2-.045-.451-.246-.428-.3-.146-.12h-.119l-.419.53-.318.593-.41.53-.419.5-1.1,1.686-.365.548-.4.539-.383.557-.165.2v.192l.528.482.638.4.611.4.638.329.21.1.183-.054.491-.638.5-.629.192-.138.21.027.6.347.566.437.593.365.546.428.1.21-.072.246-.419.676-.5.629-.451.656-.473.647Zm14.251,13.394-.428.383-.4.365-.081.054-.108.054h-.1l-.09-.018-.09-.036-.09-.063-1.012-1-.473-.575-.519-.593-.548-.509-.546-.539h0l-.464-.539-.473-.53-.054-.081-.036-.09v-.135l.027-.1.063-.12.7-.62.347-.338.365-.32.165-.081h.147l.12.045.174.119.1.111.147.063h.147l.09-.036.11-.054.081-.054.063-.063.11-.237.108-.21.045-.12.018-.119v-.122l-.09-.146-.519-.482-.519-.464-.974-1.186h0l-.464-.464-.437-.451-.183-.081-.2.063-.255.12-.237.1-.09.09-.054.1-.027.155v.054l.063.12.246.255.063.119.036.146-.045.174-.081.156-.365.347-.338.347-.365.32-.338.329-.147.12h-.21l-.147-.045-.119-.09-1.039-1.03-1.057-1.1-1.021-1.168-1.021-1.012-.063-.09-.054-.138v-.156l.129-.174.392-.374.4-.365.374-.41.365-.4.147-.119.183-.027.156.054.119.09.676.647.12.072h.147l1.039-.374.611-.174.638-.2.6-.21.611-.2.611-.225.6-.21.611-.2.629-.21.6-.237.638-.282.108-.072.027-.129-.072-.192-.492-.51-.09-.173v-.185l.072-.147.054-.081.383-.392.392-.4.785-.749.174-.119.21-.018.174.1.464.451.464.437.428.53.848.994.437.482.974.9.027.027.83.9.072.11.036.09v.128l-.045.12-.528,1.177-.255.676-.255.656-.21.676-.225.676-.255.656-.264.647-.273.656-.264.647-.309.656-.3.629-.291.647-.282.629-.2.6-.174.575v.156l.063.119.3.309.329.311.054.11v.225l-.018.12-.018.09-.063.063-.392.4Zm17.073,4.036.027.119v.09l-.138.165-.629.464-.629.451-.656.4-.676.428-.6.474-.192.155-.464.246-.1.045h-.106l-.1-.045-.063-.063-.192-.21-.21-.338-.3-.584-.451-.5-.174-.225-.183-.329-.045-.1v-.072l.054-.081.081-.081.482-.483.528-.419.119-.129.063-.111v-.147l-.045-.1-.174-.225-.192-.21-.21-.156h-.081l-.147.054-.537.383-.537.41-1.1.748-.557.347-.575.356-.566.338-.566.365-.528.383-.537.41-.183.054-.072.12.338.539.41.51.072.147-.054.128-.183.165-.338.225-.566.291-.548.365-.528.383-.138.09-.119-.036-.225-.225-.174-.291-.338-.6-.392-.548-.374-.557L126.8,233.81l-.437-.548-.165-.246-.165-.338.027-.156.183-.129.482-.347.528-.329.464-.383.225-.174.309-.147.119-.027h.09l.165.138.237.291.119.21.347.491h.11l.165-.128.566-.338.557-.374.566-.338.584-.347,2.762-1.86.528-.383.09-.1.045-.1v-.165l-.045-.1-.225-.255-.246-.264-.128-.119-.165.018-.611.437-.356.225-.291.129-.129.036h-.09l-.11-.036-.1-.09-.225-.273-.147-.282-.329-.593-.4-.521-.318-.575-.045-.128v-.063l.036-.072.1-.09.62-.451.656-.4.62-.482.6-.473.656-.437.676-.347.1-.045h.081l.081.054.072.081.437.521.356.593.4.566.419.557.329.593.356.593.4.566.419.557,1.1,1.741.383.575.374.584.383.575L141.8,232l.437.539.225.282Zm7.025,20.16-.575.225-.12-.027-.137-.081-.129-.11-.1-.137-.329-.692-.081-.11-.11-.018-.273-.072-.246-.054-.656-.027L145,252.031l-1.33.027h-2.62l-.656-.072-.647-.054h-2.642l-.11-.018-.174-.072-.1-.117-.09-.128-.611-1.368-.246-.676-.273-.692-.045-.165v-.165l.036-.155.081-.138.473-.521.451-.509.519-.465.5-.451.473-.5.451-.509.464-.5.482-.5.9-1.03.482-.482.51-.473.464-.492.473-.5.482-.491.451-.509.09-.165v-.183l-.081-.192-.174-.212-.165-.192-.072-.225.045-.226.192-.165.528-.282.557-.21.557-.273.566-.192.138-.018.108.018.174.174.165.291.1.282.192.611.557,1.15.225.593.237.566.451,1.186.246.593.156.6.018.192-.138.12-.528.3-1.1.464-.575.137-.237.063-.165-.11-.081-.192-.036-.147-.081-.347-.072-.09-.12-.054H144.7l-.1.045-.473.521-.956,1.012-.5.492-1.021.949-.548.428-.537.451-.054.12.036.128.09.128.119.054.692-.027h.692l.692-.027.676-.018,1.375-.09.7.027.676.027.147-.045.1-.1.054-.128-.018-.138-.225-.273-.09-.129-.045-.165v-.183l.027-.072.165-.192.537-.264.584-.21.566-.255.584-.165h.246l.183.146.255.566.183.629.41,1.186.165.338.156.226.21.32.225.539.072.32.09.365.09.225.138.264.21.3.156.282.081.291-.036.225-.192.165-.528.3-.557.21Zm.264,4.832.036-.237.21-.165.593-.119.593-.081.584-.225.584-.119.21.063.1.21.237.6.147.638.09.629.11.647.492,1.869.291,1.24.072.638v.21l-.174.1-.557.183-.611.1-.575.174-.593.081h-.225l-.138-.165-.165-.474-.1-.509.036-.165-.054-.063-.71.09-.676.226-.719.147-2.1.482-.676.183-.71.183-.692.147-.7.156-.2-.027-.081.054.108.629.129.647v.246l-.147.129-.593.192-.6.12-.584.137-.6.063-.225-.027-.12-.183-.183-.611L141,265.4l-.165-.62-.183-.629-.142-.616-.165-.62-.286-1.267-.183-.629-.11-.629.054-.246.183-.119.593-.183.593-.081.584-.21.6-.119.225.045.147.225.119.566.138.584.111.054.183-.063.71-.147,1.384-.32.692-.147,1.4-.246.7-.225.676-.225.71-.072.71-.165.027-.119-.1-.21-.156-.482Zm-5.291,28.012-.584.018-.537.018h-.09l-.12-.027-.081-.072-.063-.072-.045-.09-.027-.11-.128-1.414v-1.542l-.081-.749-.063-.767v-.73l-.027-.71.018-.09.027-.1.09-.1.09-.063.129-.045.938-.018.482-.027h.491l.174.045.119.09.063.11.045.2v.133l.063.146.12.09.09.027.119.027h.192l.237-.11.225-.09.108-.063.09-.081.072-.1.027-.173-.081-.71-.1-.676.018-1.54v-.018l-.054-.656-.036-.629-.09-.183-.192-.081-.264-.072-.246-.072h-.129l-.11.045-.128.1-.09.1-.027.137.018.356-.027.137-.063.138-.147.1-.165.063-.5.027-.482.045h-.491l-.464.027h-.192l-.138-.1-.081-.128-.027-.147-.129-1.459-.09-1.531-.018-1.551-.128-1.441v-.11l.045-.138.11-.119.2-.054.537-.036.548-.018.557-.072.537-.072h.192l.156.1.081.146.027.147.09.931.045.129.12.081,1.039.383.575.264.62.264.593.225.593.246.611.225.593.225.593.246.611.246.611.21.676.2h.129l.108-.081.063-.192-.045-.71.045-.191.128-.138.147-.063.09-.027.537-.054.557-.054,1.084-.063.21.027.174.119.063.183.063.656.072.629-.018.676v1.312l.018.656.156,1.321v.036l.036,1.24v.129l-.027.1-.072.072-.11.063-1.166.557-.629.356-.62.338-.593.374-.611.374-.62.338-.62.32-.638.32-.62.32-.656.3-.638.282-.638.3-.643.293-.537.338-.5.329-.1.12-.027.129.027.428.045.451-.027.12-.063.1-.072.081-.09.081-.072.063h-.09l-.557.054Z" transform="translate(41.894 -184.091)" fill="#d5d8e0"/>
            <path id="Path_11" data-name="Path 11" d="M-9.45,272.627l-.255.147-.072.063-.036.1v.12l.036.09.063.054.347.255.338.255.09.036h.119l.1-.063.054-.063.027-.063.063-.3.063-.32.072-.291.09-.291v-.11l-.072-.072-.09-.063-.09-.036-.09.036-.237.174-.255.183Zm28.858,13.466.165-.063.156-.072.129-.108.108-.138.072-.192.027-.183-.027-.174-.063-.156-.09-.138-.108-.128-.129-.11-.156-.091-.174-.072-.374-.1-.5-.156-.374-.1h-.1l-.1.027-.081.063-.054.09-.225.848-.072.365v.072l.027.072.063.036.063.027.192.054.129.045.5.138.264.092.192.063.183.027h.192Zm17.851,1.076-.246-.018h-.255l-.365.027h-.036l.018.027.036.045v.063l-.018.4-.018.165v.246l-.018.246-.063.32-.027.246v.575l-.045,1.039v.812l-.018.054-.027.045v.027h.036l.365.036.255.027.848.036h.225l.21-.027.192-.045.21-.092.183-.117.174-.147.147-.147.138-.164.119-.192.09-.192.138-.41.045-.225.036-.21.027-.225v-.226l-.027-.2-.036-.2-.045-.2-.063-.2-.072-.2-.081-.183-.119-.165-.129-.155-.156-.137L38.7,287.4l-.192-.1-.183-.054-.21-.036-.225-.018h-.225ZM48.2,289l.156-.045.165-.036.428-.054.165-.072.147-.092.119-.129.081-.155.054-.165.036-.192v-.2l-.027-.192-.054-.174-.09-.164-.119-.129-.129-.117-.156-.092-.183-.063h-.21l-.225.027-.165.027-.147.036-.225.027h-.776l-.063.027-.045.054-.018.072v.072l.018.246v.584l.027.419.027.165.027.246v.081l.036.054.045.027.072.018.225-.018h.546Zm9.029.9.419.237.4.117.428.045.473-.027.482-.12.392-.183.365-.329.237-.356.2-.374.119-.474.027-.437-.063-.464-.081-.383-.192-.492-.273-.374L59.831,286l-.338-.246-.482-.183-.383-.036-.557.072-.4.11-.451.226-.4.311-.264.338-.174.374-.063.225-.054.282-.036.255.018.329.036.338.1.356.11.273.119.225.165.226L57,289.7Zm25.149-10.849v.291l.018.09.072.081.1.054h.1l.072-.027.383-.192.383-.173.072-.063.045-.119v-.12L83.6,278.8l-.045-.054-.237-.21-.255-.21-.225-.2-.225-.226-.09-.045-.1.027-.09.045-.072.063-.018.1.045.291.045.311ZM-21.268,261.921l-.264.192-.063.036h-.063l-.063-.018-.045-.036-.138-.111-.156-.182-.237-.329-.451-.392-.138-.183-.036-.063v-.045l.027-.056.045-.054.255-.347.282-.309.063-.092.027-.072v-.092l-.036-.063-.129-.117-.138-.117-.147-.072h-.045l-.081.045-.291.282-.291.3-.611.555-.309.264-.318.273-.318.255-.318.273-.291.282-.291.3-.108.054-.036.081.255.3.3.273.063.081-.018.081-.09.119-.192.174-.318.237-.3.273-.291.282-.072.072h-.072l-.156-.12L-27,263.97l-.264-.338-.291-.3-.282-.311-1.166-1.2-.318-.291-.129-.137-.129-.192v-.1l.1-.09.264-.255.291-.246.246-.273.119-.128.183-.117.063-.027h.054l.11.072.174.156.09.119.255.264h.063l.09-.09.309-.255.309-.282.318-.255.327-.264,1.522-1.4.291-.282.045-.072.018-.063v-.147l-.036-.054-.156-.137-.174-.138-.09-.063-.1.027-.338.318-.2.165-.165.108-.072.036h-.147l-.072-.045-.165-.147-.119-.164-.255-.329-.291-.282-.246-.32-.036-.072v-.036l.018-.045.054-.063.338-.338.365-.3.338-.356.329-.347.356-.329.392-.273.063-.036.045-.018.054.027.054.045.318.273.273.329.3.309.309.3.255.329.273.338.3.311.309.3.839.967.291.32.282.318.291.32.593.611.318.291.156.156.128.174.027.063v.054l-.072.108-.347.347-.347.329-.365.3-.365.32-.329.347Zm3.718,9.938-.21.273-.183.164-.072.045-.063.018h-.063l-.072-.036-.225-.146-.138-.117-.129-.128-.192-.183-1.531-1.353-.255-.273-.183-.182-.21-.165-.291-.21-.2-.174-.464-.428-.4-.356-.264-.246-.41-.347-.264-.246-.165-.2-.063-.072-.036-.045v-.063l.027-.063.12-.192.225-.225.309-.338.21-.225.174-.147.063-.054.063-.018h.054l.063.027.138.108.138.21.129.1.063.027h.054l.054-.027.072-.045.192-.164.237-.255.329-.392.2-.282.329-.392.566-.647.246-.246.347-.374.246-.246.156-.21.036-.072v-.063l-.018-.063-.036-.063-.108-.128-.192-.138-.11-.128-.045-.054v-.1l.036-.054.119-.192.174-.246.291-.329.225-.21.174-.137.063-.054.063-.036h.054l.072.036.21.156.225.293.174.183.464.41.192.183.338.264.147.1.528.451.329.291.318.3.129.12.374.347.129.129.318.293.338.282.327.291.21.156.3.2.174.183.036.063v.054l-.018.054-.273.41-.428.491-.21.255-.428.491-.309.264-.072.045-.054.045h-.063l-.063-.027-.183-.108-.21-.223-.156-.156-.156-.14-.21-.2-.192-.225v-.1l.027-.063.072-.137.165-.138.108-.108.072-.09.027-.054v-.036l-.21-.225-.356-.246-.246-.185-.537-.5-.237-.192-.072-.045H-17.1l-.054.045-.183.21-.255.273-.147.225-.036.072-.018.054.018.045.045.072.156.185.129.117.129.1.183.164.192.156.129.1.119.117.21.246.036.063v.054l-.027.063-.119.192-.225.2-.165.165-.138.173-.192.237-.165.156-.072.045h-.129l-.072-.036-.183-.129-.21-.246-.156-.174-.174-.137-.129-.081-.3-.237-.1-.072-.12-.027-.117.018-.09.072-.156.192-.11.138-.09.138-.165.183-.027.054-.027.045v.054l.027.036.246.2.329.257.629.555.156.153.225.2.036.045.027.036.027.027h.045l.147-.117.081-.12.072-.12.156-.128.063-.036.045-.018.063.018.063.045.165.128.225.185.165.144.291.212.119.092.147.165.045.07.018.072-.018.063-.036.072-.147.2-.273.21-.183.174-.156.192-.2.255-.174.192Zm10.56,7.329-.21.293-.2.273-.045.045-.054.045h-.117l-.063-.018-.063-.027-.737-.482-.365-.291-.392-.291-.4-.246-.4-.255h0l-.356-.273-.356-.255-.036-.045-.036-.054v-.147l.027-.081.347-.464.174-.246.183-.246.09-.063.09-.027h.072l.119.054.072.056.1.027.09-.027.054-.036.054-.045.045-.045.036-.045.036-.156.036-.138v-.156l-.018-.072-.079-.1-.374-.226-.374-.225-.746-.593h0l-.347-.225-.329-.225-.119-.027-.119.063-.138.1-.138.09-.045.063-.018.072v.1l.018.081.054.063.183.128.054.063.036.081v.108l-.027.1-.174.255-.165.255-.183.246-.165.225-.072.093-.1.027h-.09l-.081-.045-.755-.491-.785-.539-.767-.584-.746-.482-.054-.045-.045-.072-.018-.1.054-.12.192-.273.2-.273.183-.3.174-.293.072-.09.108-.036.1.018.081.045.491.309.081.027.09-.027.584-.356.347-.183.365-.2.338-.2.347-.2.347-.225.338-.21.347-.2.356-.21.338-.225.356-.246.054-.063v-.081l-.072-.109-.365-.246-.072-.092-.018-.117.027-.093.027-.054.183-.282.192-.293.383-.557.09-.09.129-.036.119.036.338.225.338.21.329.264.647.5.327.237.71.428h.018l.62.451.063.054.036.054V271l-.174.784-.063.451-.072.428-.045.437-.054.451-.072.428-.081.428-.081.437-.081.428-.1.437-.1.419-.1.428-.09.419-.045.392-.027.375.018.1.054.063.225.156.237.146.045.063.018.072v.2l-.036.045-.192.293Zm12.346,5.954-.183.338-.156.347-.108.192-.09.138-.054.063-.054.036H4.546l-.192-.063-.174-.1-.347-.21-.719-.329-.338-.21-.338-.225-.365-.156-.383-.146-.347-.183-.32-.225-.09-.081.018-.108.108-.356.165-.347.147-.347.21-.318.063-.072.036-.036h.156l.273.144.282.137.09.018.054.018.072-.036.027-.036.2-.41.156-.428.2-.41.419-.8.225-.4v-.092l-.036-.061-.081-.036H3.644l-.437.183-.451.182-.437.21-.437.2-.419.225-.451.192H.9l-.1-.054-.054-.081-.027-.063L.591,281l-.12-.365-.045-.374-.054-.386-.108-.354-.108-.365-.036-.386L.1,278.512l-.018-.129-.036-.045H-.107l-.045.036-.21.437-.192.437-.21.428-.21.437-.246.41-.192.451v.137l.036.054.054.054.291.137.147.045.156.093.045.045.027.063-.036.128-.128.356-.174.329-.138.356-.183.338-.063.072-.054.027-.081.027h-.072l-.365-.155-.356-.2-.329-.226-.338-.225-.383-.129-.374-.128-.676-.437-.356-.147-.347-.2-.119-.1-.036-.045v-.072l.063-.19.1-.155.225-.32.119-.374.072-.21.09-.128.119-.072.147.018.647.347.1-.045.054-.12.183-.392.174-.392.2-.383.192-.383.21-.365.225-.374.174-.392.156-.4.21-.365.174-.392.054-.129v-.063l-.045-.045-.119-.072-.192-.054-.165-.036-.165-.092-.036-.027-.036-.072v-.147l.072-.2.09-.153.21-.311.129-.365.054-.155.119-.192.1-.081h.072l.063.018.255.092.108.045.356.2.356.164,1.066.528.374.155.356.174.045.063.018.1.1.374.072.374.11.776.108.383.119.365.027.237v.164l.11.363.027.054.054.054h.072l.072-.018.374-.1.356-.165.692-.356.728-.318.338-.21.183-.12.156-.063.09-.027.09.018.347.192.338.21.365.156.356.165.71.374.383.129.183.072.174.108.045.036.063.081v.156l-.147.356-.21.338-.174.329-.225.3-.018.027-.063.045H7.452L7.4,280.27l-.291-.092-.282-.1-.138-.027-.063.018-.036.054-.21.365-.156.4-.338.794-.21.374-.192.374-.21.374-.2.386-.192.383-.138.4-.018.108.054.036.045.036.51.329.063.054.045.045.018.063v.072ZM22.3,286.1l-.108.41-.156.365-.246.347-.282.291-.338.226-.374.192-.383.09-.821.1h-.419l-.4-.063-.392-.092-.347-.108-.327-.11-.692-.147h-.072l-.045.045-.081.329-.081.311v.072l.045.045.4.081.273.072.117.054.054.036.054.063.018.063v.081l-.018.164-.072.183-.129.347-.072.365-.054.183-.063.165-.09.1h-.119l-.4-.081-.383-.138-.4-.081-.4-.072-.794-.237-.785-.21-.4-.072-.183-.036-.21-.081-.072-.045L13,289.255l-.018-.063V289.1l.036-.225.063-.146.156-.383.054-.41.045-.225.063-.164.1-.054.138.027.273.072.264.1h.09l.081-.036.063-.063.036-.092.282-.785.2-.812.11-.4.119-.392.2-.812.108-.4.1-.4v-.081l-.027-.081-.054-.063-.063-.025-.309-.063-.129-.027-.156-.063-.063-.054L14.723,283v-.147l.054-.374.3-1.093.018-.12.063-.045.4.045.4.12.383.128.392.117.392.092.4.081.776.255.776.237.794.225.41.1.392.117.374.21.338.225.338.255.264.3.246.347.174.383.072.392v.428l-.036.4Zm8.037,6.218-.027.338-.063.226-.036.081-.045.054-.063.027h-.338l-.183-.027-.183-.036-.264-.054-2.013-.32-.365-.09-.246-.054-.264-.027-.365-.018-.264-.045-.62-.11-.528-.081-.356-.063-.528-.072-.356-.063-.246-.09-.09-.027-.054-.018-.036-.054V291.5l.072-.309.081-.451.054-.293.072-.21.027-.072.045-.054.036-.036h.072l.174.018.225.108H23.9l.054-.027.036-.054.036-.081.072-.246.063-.347.072-.5.018-.347.072-.51.138-.848.072-.338.09-.5.081-.338.018-.255v-.081l-.027-.054-.054-.045-.063-.036-.156-.054H24.2l-.156-.054-.063-.018-.036-.045-.018-.036v-.656L24,284.29l.072-.291.072-.21.027-.081.036-.063.036-.036h.081l.255.018.347.129.246.063.611.1.264.054.428.045h.174l.692.1.437.072.437.081.174.027.5.092.183.036.419.081.437.054.437.072.255.018h.365l.246.063.063.036.027.054.018.063v.491l-.1.647-.036.318-.1.638-.119.392-.036.081-.027.063-.054.036h-.282l-.291-.072-.225-.045-.21-.036-.282-.054-.282-.09-.036-.045-.027-.036-.018-.072v-.156l.063-.2.036-.147.018-.117V286.4l-.027-.027-.291-.072-.428-.018-.3-.027-.719-.138-.3-.036h-.081l-.054.036-.045.036-.027.063-.045.273-.072.365v.41l.045.027.072.036.225.072.174.027h.119l.237.036.246.027h.156l.156.036.309.1.063.036.036.045v.293l-.081.291-.045.225-.027.226-.036.3-.054.21-.036.081-.108.072h-.309l-.3-.1-.225-.054-.225-.027h-.108l-.383-.036h-.128l-.108.036-.09.081-.036.108-.027.246-.018.174V290l-.036.246v.11l.027.036.045.018.309.036.419.045.821.128.225.045.291.045.054.018.045.018h.036l.036-.027.063-.183v-.282l.063-.192L28.87,290l.027-.045h.156l.21.018.282.036.225.036.365.018.156.018.225.054.081.036.045.054.027.063v.081l-.018.246-.119.32-.063.246-.027.246-.027.329-.036.255Zm11.581-3.208-.018.21-.018.437-.027.428-.09.428-.156.4-.081.192-.156.41-.192.383-.138.165-.156.146-.329.282-.338.264-.374.225-.383.183-.629.182-.419.063-.866.1h-.839l-.51-.036h-.347l-.51-.027-.174-.027-.676-.054-.866-.036-.174.018h-.174l-.255-.036-.081-.027-.054-.036-.027-.045-.018-.081L32.822,293l.018-.146.027-.155.027-.226v-.226l-.018-.164v-.155l.036-.226.036-.081.036-.045.072-.018.081-.018h.225l.3.081h.225l.036-.036v-.045l-.018-.072v-1.177l.036-.857.027-.347.027-.255v-.282l.063-.347.027-.255v-.929l.027-.054v-.036l-.045-.027-.21-.036-.156.018-.165.027-.21-.018-.081-.027-.054-.036-.045-.054v-.3l.036-.3v-.757l.045-.225.027-.081.027-.054.036-.036L33.4,285l.246-.027.356.063.255.027h1.127l.347.027.255.027h.255l.857.036.356.054.255.027h.647l.192.027.41.128.383.156.21.063.21.093.365.183.365.237.309.282.264.318.237.356.11.182.119.165.192.383.063.2.045.21.072.438Zm10.653,2.579v.156l.027.758v.383l.036.128-.054.081-.4.054h-.41l-.41.02h-.41l-.4.054-.4.063-.4.034-.41-.025-.081-.056-.036-.117-.018-.494v-.55l-.018-.054-.246-.318-.255-.311-.557-.591-.108-.081-.129-.027H47.5l-.11-.018h-.095l-.054.025-.036.036-.018.128.045.647.027.1.045.027h.045l.309-.036h.3l.081.018.054.045.054.063.054.21v.521l.027.338v.392l-.045.054-.129.054-.4.063-.419.054h-.812l-.821.1-.821.063-.419.054h-.41l-.054-.063.018-.119-.018-.426v-.419l-.054-.413.018-.419.045-.061h.419l.318-.036.108-.057.018-.045v-.5l-.063-.428v-.821l-.11-.857V288.2l-.054-.428-.063-.426v-.128l-.018-.072h-.036l-.647.117h-.237l-.072-.063v-.129l-.036-.374-.054-.739v-.374l.018-.081.054-.063.09-.063.1-.027h.8l.812-.054.392-.018.41-.027.392-.018.4-.027.8-.1,1.222-.054.383.025.419.056.383.1.383.174.338.2.309.282.246.32.246.329.192.356.1.4.036.4v.5l-.09.473-.156.451-.264.428-.347.291-.437.282-.054.063-.027.081v.09l.036.063.374.451.392.428.072.054h.09l.4-.054.41-.018.129.045.036.045.018.081ZM63.125,287.1l.036.428v.365l.036.428v.374l-.108.437-.273.749-.174.329-.237.365-.246.282-.3.291-.291.246-.365.21-.347.174-.356.191-.374.165-.383.092-.41.081-.4.063-.4.027h-.338l-.848-.1-.4-.072-.4-.1L56.177,292l-.338-.21-.318-.246-.356-.237-.282-.255-.225-.356-.183-.329-.192-.374-.138-.356-.138-.4-.081-.374-.063-.4-.027-.4.018-.419.054-.374.063-.473.081-.309.174-.451.147-.291.282-.338.255-.264.3-.293.282-.246.365-.246.309-.165.419-.174.338-.117.392-.117.374-.1.329-.054.464-.054h.8l.374.027.428.081.41.119.347.156.383.237.282.21.318.309.225.273.282.329.225.3.183.4.129.347.129.383Zm14.643-3.156.072.225.072.419v.647l-.018.21-.054.21-.192.383-.264.347-.282.32-.318.3-.338.255-.383.226-.183.093-.41.146-.21.063-.225.1-.428.173-.21.063-.237.054-.451.036h-.225l-.225.027-.473.018h-.273l-.676-.174-.237-.072-.045-.045-.036-.072-.1-.237-.192-.464L71,286.671l-.138-.32v-.09l.045-.138.063-.128.063-.063.225-.081.156-.045.174-.036.225-.09.21-.092.147-.081.138-.072.225-.063h.072l.054.027.036.045.045.054.1.174.045.12.09.309.027.036.054.045h.12l.147-.018.329-.054.174-.036.309-.093.519-.2.225-.072.192-.092.174-.1.147-.165.09-.192.018-.21-.027-.21-.108-.146-.138-.1-.2-.036h-.437l-.419.045-.255.036-.575.225-.192.045-.225.045-.4.063-.4.027h-.428l-.4-.072-.183-.054-.192-.072-.183-.092-.165-.129-.291-.273-.255-.309-.225-.356-.09-.2-.054-.2-.036-.21v-.611l.027-.41.054-.192.09-.182.225-.347.255-.338.291-.282.165-.129.165-.137.147-.129.347-.246.374-.192.183-.081.4-.146.21-.054.2-.036.392-.1.2-.036.41-.054.6-.045.21.018.21.027.4.1.2.063.072.018.045.054.081.183.156.338.119.264.09.246.1.365.054.264v.081l-.027.027-.054.018-.237.1-.575.225-.237.1-.318.147-.246.054h-.129l-.045-.045-.054-.063-.09-.147-.147-.383-.036-.054-.045-.018h-.119l-.225.045-.451.119-.237.09-.338.137-.174.1-.138.129-.129.146-.1.164-.045.183.036.192.108.191.192.137.21.054h.246l.183-.036.419-.138.638-.183.593-.117.41-.054.4-.018.392.027.21.027.2.045.365.146.174.093.318.225.282.291.129.156.21.347Zm11.572-3.975.156.329.147.3.018.054v.072l-.018.063-.027.054-.036.045-.054.045-.776.428-.428.182-.451.21-.4.237-.419.226h0l-.4.183-.4.192-.054.018H86.13l-.072-.027L86,282.547l-.054-.061-.246-.528-.138-.264-.129-.273-.018-.111.018-.09.045-.063.1-.081.081-.045.063-.072.018-.09v-.137l-.018-.054-.027-.056-.119-.108-.11-.1-.063-.045-.072-.027-.072-.018-.1.027-.383.223-.365.225-.875.374h0l-.356.2-.347.185-.081.09v.128l.027.174.018.164.036.072.054.054.09.045.081.027.081-.018.2-.1.081-.018h.09l.09.054.072.072.147.282.156.264.129.273.138.255.045.108-.027.1-.054.072-.072.054-.794.437-.848.437-.875.4-.785.437-.063.027h-.09l-.09-.027-.081-.1-.156-.3-.147-.3-.183-.3-.174-.291-.045-.11.018-.117.063-.081.081-.054.5-.293.063-.054.018-.092-.045-.676v-.812l-.018-.392v-.4l-.027-.4-.018-.392v-.4l-.018-.41-.036-.4-.054-.428-.027-.081-.072-.036h-.129l-.392.21-.119.027-.111-.036-.072-.063-.036-.045-.165-.291-.174-.3-.309-.6-.036-.128.027-.128.09-.081.356-.2.338-.2.383-.165.746-.338.365-.183.71-.419h.018l.692-.329.072-.027h.063l.063.018.063.045.611.519.365.273.347.266.365.246.365.255.347.264.338.273.347.282.338.273.338.291.318.293.327.282.329.273.327.225.318.2.09.027.081-.018.237-.129.246-.137h.072l.072.018.063.018.063.027.054.027.027.054.174.3Zm-5.111-2.809h-.063l.027-.054.036-.045h.027l.072.09-.018.063-.045-.018Zm1,.53.054-.054v-.063h-.036l-.036.054Zm9.322-8.962.237.3.192.318.027.147-.072.146-.246.183-.273.155-.138.027-.045.054.237.392.3.356.264.383.246.383.5.785.255.374.225.374.174.428.119.428.054.451v.437l-.072.428-.147.429-.156.41-.225.4-.264.356-.309.338-.347.273-.374.273-.4.246-.392.192-.437.164-.428.117-.451.072-.437.018-.451-.018-.451-.072-.4-.192-.392-.255-.329-.282-.327-.32-.282-.338-.273-.365-.482-.71-.246-.347-.246-.338-.21-.374-.255-.338-.12-.045-.128.054-.264.155-.255.138H86.94l-.119-.054-.036-.054-.027-.081-.347-.465-.347-.474-.054-.072-.027-.081v-.117l.063-.092.282-.291.318-.226.676-.428.338-.2.356-.2.611-.5.32-.226.356-.183.156-.045.119.072.225.273.183.311.192.3.192.291.045.081v.092l-.027.081-.045.054-.09.036-.473.32-.09.045-.018.081.21.41.264.374.246.392.767,1.127.338.374.347.273.419.246.437.09.428-.108.437-.237.374-.32.255-.374.1-.428-.045-.474-.165-.392-.273-.419-.451-.74-.264-.356-.255-.347-.451-.74-.036-.09-.054-.045-.7.473H91.48l-.1-.1-.225-.291-.225-.3-.246-.3-.2-.309-.027-.146.072-.12.309-.246.347-.192.338-.226.318-.225,1.33-.848.309-.246.338-.2.147-.036.129.063.225.291Zm11.318-.92.237.237.147.2.036.072v.063l-.018.063-.045.072-.174.192-.147.12-.147.11-.21.165L104,270.445l-.3.225-.2.156-.192.183-.246.264-.2.174-.482.4-.4.347-.282.225-.4.356-.282.225-.225.129-.072.054-.054.027H100.6l-.063-.036-.174-.147-.192-.255-.291-.356-.192-.237-.119-.192-.045-.072v-.129l.036-.063.128-.129.225-.11.119-.117.036-.063.018-.054-.018-.054-.036-.072L99.9,270.9l-.225-.273-.347-.383L99.071,270l-.347-.374-.566-.656-.21-.273-.327-.392-.21-.282-.183-.183-.072-.045h-.129l-.063.027-.138.092-.165.164-.138.09-.063.036h-.1l-.054-.045-.174-.146-.225-.21-.291-.338-.183-.246-.119-.192-.045-.072-.027-.063v-.054l.045-.072.183-.183.318-.182.21-.156.464-.4.21-.165.309-.3.119-.129.519-.464.338-.293.338-.282.138-.117.392-.329.147-.11.338-.273.329-.3.338-.291.183-.183.246-.273.21-.147.063-.027h.054l.054.027.374.318.428.494.225.237.428.492.225.347.036.072.036.063v.063l-.036.063-.138.165-.246.182-.174.138-.156.138-.225.183-.246.156h-.108l-.063-.036-.128-.092-.108-.183-.09-.117-.072-.092-.045-.036h-.045l-.246.183-.291.318-.21.225-.566.464-.225.21-.054.063v.117l.036.063.183.21.237.293.2.183.072.045.054.027h.054l.072-.036.2-.128.138-.117.119-.117.183-.165.174-.165.12-.119.129-.1.273-.183.063-.027h.054l.063.036.174.147.174.255.147.183.156.156.21.225.129.183.036.081v.129l-.045.072-.156.165-.273.174-.192.138-.165.156-.1.12-.273.273-.09.093-.036.108v.128l.054.1.165.174.119.129.129.11.165.183.045.036.036.027h.054l.045-.018.225-.21.3-.291.629-.548.174-.138.225-.2.054-.027.045-.018.027-.018v-.054l-.09-.165-.1-.1-.108-.092-.1-.174-.027-.072v-.054l.027-.054.054-.063.147-.146.21-.2.165-.146.246-.264.11-.111.183-.128.072-.036h.072l.063.027.072.045.183.164.165.3.156.21.165.174.225.225.165.192Zm7.235-8.635.108.1.537.53.264.273.108.072.018.1-.255.311-.3.273-.282.293-.291.282-.255.309-.246.32-.264.309-.318.255-.1.018-.1-.063-.347-.338-.338-.356-.045-.036-.054-.027-.4-.063-.4-.054-.812-.045H109.2l-.11.072-.147.138-.137.146-.09.063-.081.072-.018.054v.054l.081.1.473.438.09.054h.054l.036-.027.2-.226.225-.2.072-.045h.147l.183.119.138.129.225.255.246.225.237.237.036.045v.063l-.054.129-.255.32-.264.318-.291.282-.3.273-.528.638-.557.6-.264.318-.3.273h-.083l-.072-.1-.309-.3-.291-.3-.32-.266-.273-.318v-.072l.072-.063.246-.226.21-.246.045-.12-.018-.045-.045-.054-.3-.311-.338-.264-.291-.318-.3-.311-.676-.548-.291-.318-.3-.311-.329-.273-.338-.264-.081-.1-.063-.036-.027.018-.392.528-.174.155h-.1l-.09-.092-.282-.246-.546-.5-.255-.273-.045-.072v-.081l.018-.108.054-.092.575-.557.555-.593.273-.282.273-.3.273-.282.273-.3.51-.62.848-.875.3-.246.347-.255.347-.183.4-.138.383-.092h.419l.4.063.4.072.383.137.347.226.309.264.347.365.255.41.2.438.1.494-.054.451-.12.5v.081l.036.081.072.063.072.018.575.072.575.045h.09l.072-.063.255-.318.282-.293.129-.054h.054l.063.045Zm-5.021,1.039.081-.144.09-.14.273-.329.072-.164.045-.162V259.1l-.045-.174-.072-.165-.1-.165-.137-.144-.156-.129-.165-.083-.183-.061-.174-.02h-.174l-.183.036-.183.072-.156.137-.147.185-.1.129-.081.129-.147.182-.156.156-.128.1-.119.09-.165.165-.027.063v.063l.036.063.045.054.183.165.119.128.117.108.174.174.309.282.128.1.183.153.063.056.063.018h.054l.063-.036.156-.174.12-.108.1-.11.165-.165Z" transform="translate(57.35 -96.105)" fill="#d5d8e0"/>
          </g>
        </g>
        <g id="Group_1" data-name="Group 1" transform="translate(13.527 31.563)">
          <path id="Path_2" data-name="Path 2" d="M-5.436,243.438l5.129-11.681a69.724,69.724,0,0,1,14.9,9.893,23.861,23.861,0,0,0,8.666,5.3l5.494,12.783c-9.931.74-15.353-2.98-21.988-8.306a56.831,56.831,0,0,0-12.192-7.979" transform="translate(74.89 -152.957)" fill="#d5d8e0"/>
          <path id="Path_3" data-name="Path 3" d="M14.657,238.3a28.687,28.687,0,0,1-5.566.839l5.131,11.926a62.318,62.318,0,0,0,6.378-1.432Z" transform="translate(93.115 -144.751)" fill="#d5d8e0"/>
          <path id="Path_4" data-name="Path 4" d="M1.846,232.38c-1.786-.757-3.718-1.524-5.9-2.288l-5.695,11.6c2.433.812,4.556,1.605,6.45,2.39Z" transform="translate(69.486 -155.046)" fill="#d5d8e0"/>
          <path id="Path_5" data-name="Path 5" d="M-3.6,217.074s29.286,53.3,43.181,73.452S65.1,308.68,67.234,308.68s18.088-2.561,18.57-21.709a23.143,23.143,0,0,0-8.22-18.444A13.657,13.657,0,0,1,72.2,255.471a13.758,13.758,0,0,0-5.1,11.151c.318,4.924,4.547,5.3,6.66,6.583,1.849,1.127,6.2,6.053,5.668,10.722-.018.4,3.571,3.821,1.276,5.736a1.965,1.965,0,0,1,1.959,1.758A12.4,12.4,0,0,1,74.6,302.854c-1.84.566-2.834-2.27-2.406-3.411-4.092,2.617-11.627.437-17.441-5.316S2.671,203.962,2.671,203.962Z" transform="translate(77.192 -187.826)" fill="#d5d8e0"/>
          <path id="Path_6" data-name="Path 6" d="M45.454,293.141c8.6,13.868,17.851,14.242,17.851,14.242a15.046,15.046,0,0,0,6.842-1.24,7.1,7.1,0,0,1,0,4.1c4.629-1.988,5.686-5.954,6.087-9.92a6.747,6.747,0,0,1-3.436,3.966c-.728-2.931,1.249-2.57,1.768-6.52a4.645,4.645,0,0,0-2.825-4.2c-2.115-1.057-5.156-3.711-4.766-6.482a4.255,4.255,0,0,0-1.849,3.273c.156,2.962,4.6,5.161,5.158,6.919.821,3.118-.794,4.241-3.044,4.241-4.236-.264-13.232-8.608-18.388-18.938S7.048,196.8,7.048,196.8L.041,210.172s36.821,69.1,45.424,82.966" transform="translate(81.761 -196.805)" fill="#d5d8e0"/>
          <path id="Path_7" data-name="Path 7" d="M33.214,214.174c-1.294,1.477-.374,4.879-1.213,6.182-.62.949-4.047,4.058-3.846,7.194s5.862,6.784,5.767,9.419a7.937,7.937,0,0,1-2.888,4.861s1.166-5.37-.557-6.784a6.93,6.93,0,0,1-2.333,5.068c-1.2.812-3.217,3.783,0,10.842a18.608,18.608,0,0,1,5.778-10.231c1.312.2,2.931,1.522,2.633,5.37s1.822,5.143,3.343,7.74c-.3-4.194,3.846-7.632,4.96-6.218a65.52,65.52,0,0,0-1.7-9.117,4.44,4.44,0,0,0-1.03-1.824,8.263,8.263,0,0,0-1.722,3.747c-.2,1.923-1.012,1.623-1.012,1.623a8.787,8.787,0,0,1-.51-5.472,6.6,6.6,0,0,0-.71-6.989c-1.822-2.234-2.66-3.346-2.543-5.061a6.022,6.022,0,0,0,0,4.96,4.626,4.626,0,0,1-2.115-6.989c1.45-2.151-.3-8.306-.3-8.306" transform="translate(114.839 -175.015)" fill="#d5d8e0"/>
          <path id="Path_8" data-name="Path 8" d="M25.825,228.822c-1.414,4.058-.5,11.243,3.244,14.589.71-.3,1.42-1.623,2.534-2.029-2.223-2.435-3.2-8.407-3.2-8.407-.647,1.522-2.771-2.333-2.57-4.148" transform="translate(113.317 -156.639)" fill="#d5d8e0"/>
          <path id="Path_9" data-name="Path 9" d="M38.736,229.542s-5.24,4.112-5.267,6.682a26.038,26.038,0,0,1,7.591,17.524,30.716,30.716,0,0,1-1.686,10.84S44.2,258.7,44.5,255.672s0-12.044,0-12.044-1.012,2.435-2.633,2.931c-.9.2-.9-1.788-.9-1.788a9.034,9.034,0,0,1,2.633-2.254c-3.544-3.547-5.167-5.772-4.856-12.966" transform="translate(123.697 -155.736)" fill="#d5d8e0"/>
          <path id="Path_10" data-name="Path 10" d="M35.545,211.076C28.083,223.2,21.9,235.876,16.192,247.62l-6.7,13.559c-7.735,15.089-15.331,27-23.472,27-3.637,0-9.73-1.294-9.73-9.965a17.161,17.161,0,0,1,7.289-12.673,28.636,28.636,0,0,1,17.477-5.079,45.523,45.523,0,0,1,5.785.329l6.087-11.744c-18.487-3.337-30.1,1.423-36.83,6.455a29.33,29.33,0,0,0-12.319,22.712,21.674,21.674,0,0,0,7.262,17.231,22.945,22.945,0,0,0,14.99,5.251c15.635,0,25.368-15.331,35.928-36.4l5.557-11.334c4.656-9.582,9.64-19.8,15.353-29.724Z" transform="translate(36.243 -178.902)" fill="#d5d8e0"/>
        </g>
      </g>
    </g>
    <line id="Line_62" data-name="Line 62" y2="173.695" transform="translate(5041.868 26.705)" fill="none" stroke="#d5d8e0" stroke-width="3"/>
    <g id="Artwork_1" data-name="Artwork 1" transform="translate(5100.514 13.366)">
      <g id="Group_155" data-name="Group 155" transform="translate(0)">
        <g id="Group_154" data-name="Group 154">
          <path id="Path_774" data-name="Path 774" d="M-37.256,257.791h-2.307V255.86h6.948v1.931h-2.338v5.88h-2.3Zm5.5-1.931h5.628v1.931h-3.322v1h3.022v1.869h-3.022v1.059h3.322v1.954h-5.628Zm8.943,0h3l2.589,7.811h-2.471l-.409-1.328h-2.513l-.425,1.328h-2.4Zm1.421,1.588-.685,3.137h1.421Zm4.983-1.588h3.678l1.019,4.652.965-4.652h3.665v7.811H-9.155V258.32l-1.258,5.351h-2.512l-1.3-5.351v5.351h-2.181Zm12.671,0H-.566a3.22,3.22,0,0,1,2.4.695,2.614,2.614,0,0,1,.821,2.016c0,1.768-1.039,2.679-3.044,2.679H-1.42v2.422H-3.734Zm2.574,3.6c1.08,0,1.466-.219,1.466-.83s-.4-.842-1.466-.842H-1.5v1.672Zm4.694-3.6H9.163v1.931H5.84v1H8.863v1.869H5.84v1.059H9.163v1.954H3.534Zm6.564,0h3.334a3.572,3.572,0,0,1,3.853,3.884,4.139,4.139,0,0,1-1.112,2.94,3.941,3.941,0,0,1-2.981.987H10.1Zm2.855,5.857a1.724,1.724,0,0,0,1.911-1.952c0-1.32-.633-1.974-1.911-1.974H12.4v3.926Zm5.254-5.857H21.48a3.2,3.2,0,0,1,2.171.539,2.048,2.048,0,0,1,.789,1.692,1.829,1.829,0,0,1-1.786,1.924c1.112.042,1.515.456,1.682,1.745l.1.757a5.587,5.587,0,0,0,.27,1.154h-2.4a6.52,6.52,0,0,1-.238-1.289c-.156-1.151-.354-1.381-1.229-1.381h-.33v2.67H18.207Zm2.856,3.468c.77,0,1.164-.268,1.164-.778,0-.532-.363-.758-1.193-.758h-.521v1.537Zm12.121.468a3.736,3.736,0,0,1-3.906,4.072c-2.431,0-3.907-1.525-3.907-4.072,0-2.524,1.517-4.134,3.907-4.134a3.79,3.79,0,0,1,3.906,4.134m-5.393.022c0,1.351.532,2.118,1.467,2.118.955,0,1.5-.812,1.5-2.2,0-1.351-.55-2.161-1.463-2.161-.956,0-1.508.819-1.508,2.244m10.927,1.317c.022.656.31.948.977.948.539,0,.924-.271.924-.646,0-.4-.249-.539-1.5-.852a4.455,4.455,0,0,1-2.077-.873,2.1,2.1,0,0,1-.675-1.587c0-1.487,1.3-2.463,3.273-2.463a3.7,3.7,0,0,1,2.648.872,2.328,2.328,0,0,1,.593,1.736H40.443c-.022-.6-.292-.874-.864-.874-.486,0-.81.229-.81.571a.505.505,0,0,0,.333.466,7.467,7.467,0,0,0,1.205.365,4.421,4.421,0,0,1,2.026.893,2.215,2.215,0,0,1,.7,1.65c0,1.56-1.328,2.525-3.46,2.525-2.158,0-3.374-.987-3.363-2.733Zm7.592-5.275h3l2.586,7.811H49.428l-.406-1.328H46.506l-.424,1.328h-2.4Zm1.421,1.588-.685,3.137h1.424Zm11.841,3.137c0,2.141-1.2,3.283-3.43,3.283-2.191,0-3.428-1.174-3.428-3.262V255.86h2.306v4.6c0,1.028.344,1.475,1.133,1.475.81,0,1.112-.436,1.112-1.58v-4.5h2.307Zm1.067-4.725h5.628v1.931H62.947v1h3.022v1.869H62.947v1.059h3.322v1.954H60.64Zm6.564,0h3.272a3.209,3.209,0,0,1,2.172.539,2.05,2.05,0,0,1,.788,1.692,1.831,1.831,0,0,1-1.786,1.924c1.112.042,1.515.456,1.683,1.745l.1.757a5.538,5.538,0,0,0,.271,1.154h-2.4a6.769,6.769,0,0,1-.239-1.289c-.156-1.151-.354-1.381-1.226-1.381h-.33v2.67H67.2Zm2.855,3.468c.768,0,1.164-.268,1.164-.778,0-.532-.364-.758-1.195-.758H69.51v1.537ZM-54.457,217.9c1,2.044.7,4.605-.776,7.005-3.319,5.4-9.695,6.3-16.19,2.3-6.74-4.144-8.432-10.562-4.456-17.029a12.215,12.215,0,0,1,5.985-5.27c2.421-.879,4.16-.71,7.026.675l-3.907,6.357a3.275,3.275,0,0,0-4.387,1.328c-1.459,2.372-.089,5.283,3.512,7.5,3.983,2.446,7.139,2.395,8.7-.143,1.224-1.992.82-3.783-1.352-5.754l-2.4,3.9-4.311-2.65,5.839-9.5,11.95,7.347-3.186,5.185Zm-13.9-18.8,5.284-8.6c1.743-2.838,3.081-4.158,4.924-4.83a6.3,6.3,0,0,1,5.723.659c2.838,1.747,3.585,4.388,2.164,7.8,1.9-2.851,3.646-3.246,7.3-1.6l2.161.953a17.392,17.392,0,0,0,3.466,1.15l-3.877,6.3a20.927,20.927,0,0,1-3.767-1.453c-3.283-1.452-4.2-1.3-5.611.99l-.536.875,7.014,4.309-3.726,6.057Zm13.726-1.9c1.242-2.018,1.169-3.491-.166-4.311-1.394-.857-2.578-.271-3.921,1.91l-.841,1.364,4.041,2.484Zm1.573-22.981,4.847-7.886,24.7,5.819-3.993,6.5-4.145-1.083-4.061,6.6,2.806,3.268-3.876,6.3Zm6.471-1.172,7.134,6.868,2.3-3.739Zm27.737-26.524c5.254,3.869,6.2,9.115,2.7,14.819-3.877,6.3-9.922,7.511-16.743,3.317-6.85-4.211-8.638-10.349-4.814-16.569A11.863,11.863,0,0,1-31,142.619c2.489-.69,4.574-.347,7.413,1.21l-3.825,6.223c-2.069-1.161-4.115-.766-5.225,1.036-1.424,2.32-.112,4.895,3.653,7.207,3.575,2.2,6.381,2.158,7.807-.161,1.073-1.747.532-3.736-1.512-5.366Zm-11.382-9.437,3.725-6.058,20.518,12.617-3.723,6.058Zm5.1-8.293L-16.036,114l5.077,3.122-5.368,8.731,2.619,1.609,4.881-7.941,4.91,3.02L-8.8,130.479l2.783,1.711,5.368-8.732,5.131,3.153L-4.607,141.4Zm64.012,3.2a5.257,5.257,0,0,0,.476,1.257,1.628,1.628,0,0,0,1.506.823,6.467,6.467,0,0,0,2.319-1.047l7.009-4.2,2.251,3.757-7.938,4.761c-1.779,1.065-2.677,1.445-3.6,1.471-1.625.1-2.937-.747-4.033-2.575a8.418,8.418,0,0,1-1.019-2.426Zm14.384,1.957,2.255,3.76-12.731,7.633-2.255-3.757Zm2.083,20.937c-3.486,2.091-6.516,1.263-8.7-2.379-2.142-3.572-1.437-6.732,1.963-8.773l7.738-4.64,2.252,3.759-7.5,4.5c-1.677,1.005-2.067,2-1.3,3.288.792,1.32,1.8,1.385,3.658.265l7.331-4.394,2.252,3.759Zm2.213.349,3.519,5.872-2.96,1.779L54.6,157.011Zm.58,8.878a5.208,5.208,0,0,0,.477,1.254,1.627,1.627,0,0,0,1.508.823,6.445,6.445,0,0,0,2.319-1.044l7.005-4.2L71.71,164.7l-7.94,4.759c-1.776,1.068-2.678,1.448-3.6,1.473-1.622.1-2.933-.749-4.033-2.577a8.337,8.337,0,0,1-1.016-2.426Zm14.387,1.957,2.252,3.757-12.731,7.633L59.8,173.7Zm2,10.484L72.285,172.8l3.148-1.889,6.789,11.326-3.147,1.887-2.283-3.808-9.581,5.746L64.957,182.3Zm2,15.691a1.6,1.6,0,0,0-.586,2.515c.529.88,1.344,1.244,1.954.88.66-.4.635-.938-.073-3.273-.664-2.179-.81-3.149-.61-4.239a4.009,4.009,0,0,1,1.929-2.652c2.422-1.45,5.283-.289,7.211,2.926a7.045,7.045,0,0,1,1.166,5.17,4.432,4.432,0,0,1-2.25,2.66L82.9,192.253a1.462,1.462,0,0,0,.577-2.26c-.476-.794-1.164-1.1-1.721-.76a.954.954,0,0,0-.437,1,14.148,14.148,0,0,0,.583,2.319,8.357,8.357,0,0,1,.523,4.173,4.207,4.207,0,0,1-2,2.765c-2.542,1.523-5.413.3-7.493-3.171-2.111-3.519-1.692-6.464,1.162-8.155Zm12.489,18.792c-3.488,2.091-6.516,1.26-8.7-2.377-2.143-3.574-1.437-6.735,1.964-8.776l7.737-4.639L92.28,199l-7.5,4.5c-1.676,1.005-2.07,2-1.3,3.288.791,1.32,1.8,1.385,3.657.269l7.328-4.4,2.256,3.759ZM8.449,120.323a2.434,2.434,0,0,1-.19,1.882,2.473,2.473,0,0,1-3.382,1.057,2.394,2.394,0,0,1-1.255-1.541,2.456,2.456,0,0,1,.2-1.843,2.4,2.4,0,0,1,1.473-1.229,2.426,2.426,0,0,1,1.911.172,2.408,2.408,0,0,1,1.244,1.5M4.07,121.672a2.084,2.084,0,0,0,2.6,1.353,2.056,2.056,0,0,0,1.354-2.591,2.08,2.08,0,0,0-2.593-1.363,2.036,2.036,0,0,0-1.362,2.6m2.695.99L4.3,121.372q.122-.231.359-.685c.161-.3.253-.474.274-.505a1.335,1.335,0,0,1,.377-.419.7.7,0,0,1,.76-.021.614.614,0,0,1,.36.408.925.925,0,0,1-.061.513.982.982,0,0,1,.326-.276.753.753,0,0,1,.667.073l.221.117a.524.524,0,0,0,.073.032.42.42,0,0,0,.083.02l.081.014-.323.614a2.179,2.179,0,0,1-.362-.138A1.381,1.381,0,0,0,6.817,121a.34.34,0,0,0-.276.086.8.8,0,0,0-.153.2l-.083.135-.071.138.87.456Zm-1.359-2.211a1.222,1.222,0,0,0-.249.346l-.083.157.717.377.13-.253a.663.663,0,0,0,.093-.4.377.377,0,0,0-.223-.281.322.322,0,0,0-.385.053M81.1,218.43H68.565l.007.01H48.544L53.979,231.1h22.23l4.932,8.175-127.513.022,20.421-33.264H61.085l4.754,7.882H78.374L67.741,196.286H-32.56l-33,53.742L100.147,250ZM-11.319,182.2H46.7l5.774,9.571H65.014L18.028,113.89l-47.815,77.876h12.593ZM17.947,134.53l22.192,36.784H-4.636Z" transform="translate(77.999 -113.89)" fill="#d5d8e0"/>
        </g>
      </g>
    </g>
  </g>
</svg>
