<svg id="Component_40_1" data-name="Component 40 – 1" xmlns="http://www.w3.org/2000/svg" width="97.037" height="96.821" viewBox="0 0 97.037 96.821">
  <g id="Logo_Light" data-name="Logo Light">
    <g id="TheAcademy-Logo-bw" transform="translate(0)">
      <g id="TheAcademy-Logo-bw-2">
        <path id="Path_1" data-name="Path 1" d="M39.766,201.5l.031-.044.1-.221L40,201l.1-.21.116-.21.013-.076-.044-.072-.059-.059-.063-.043-.076.013-.21.1-.221.1-.236.085-.221.072-.067.035-.044.072-.013.089.013.076.035.054.228.25.214.25.063.04.1.009.085-.031Zm12.4,28.77.054-.013.221-.11.232-.116.214-.094.221-.089.063-.049.013-.085v-.081l-.022-.072-.067-.04-.221-.059-.232-.067-.236-.089-.214-.089-.076-.013-.081.022-.072.059-.04.067v.063l.013.339v.331l.022.072.067.072.085.031Zm-80.2-26.93-.05-.029-.236-.076-.245-.076-.221-.076L-29,202.99h-.081l-.067.049-.054.063-.031.067.018.076.12.2.12.21.11.221.1.214.044.063.076.04h.094l.076-.018.049-.044.228-.255.228-.241.031-.067v-.1l-.04-.081Zm21.281-12.073v.1h.031l.277-.063.2-.049.643-.192.17-.072.151-.072.129-.085.134-.125.1-.134.089-.151.072-.142.059-.161.031-.177.018-.166v-.344l-.022-.174-.027-.166-.04-.17-.059-.166-.072-.142-.081-.138-.089-.138-.1-.134-.11-.129-.116-.11-.134-.094-.142-.085-.147-.059-.166-.044-.17-.027h-.156l-.166.027-.17.04-.166.049-.286.076-.188.044-.188.076-.263.116-.022.018.022.013.035.027.022.04.089.308.027.125.054.183.044.188.035.26.044.188.063.175.085.25.232.791.063.183.081.241ZM-41.784,229.6l.018-.054.027-.035.1-.026.384-.013h.374l.374.022.384.018.374-.022.12-.009.254.031.054.009.044.027.027.044.009.044.018.138-.013.192-.04.321.04.331v.138l-.022.183-.009.054-.027.027-.044.018-.054.009-.331.059-.331.022-.081.018-.053.026-.049.054-.009.054v.138l.018.138.044.12.027.026.072.018h.331l.331-.013.652.009.321.013.331.013.321.022.331.013h.325l.331-.013.089.027.063-.027.013-.313-.022-.321.009-.081.059-.035.12-.018h.2l.313.04h.723l.035.044.027.157-.013.166-.031.339v.675l.013,1.325.022.339v.147l-.031.183-.059.054h-.4l-.3-.013-.295.022h-.138l-.166-.031-.054-.018-.035-.026-.027-.1-.013-.183.009-.12v-.295l-.044-.026-.1.009-.321-.022H-37.5l-.321-.022-.331-.022-1.637-.028h-.331l-.063.018-.044.027-.044.063-.009.054.018.166.022.174.018.081.072.035h.366l.2.013.156.031.063.018.035.027.035.044.018.063.013.174-.018.157-.031.331.013.321-.031.321-.018.063-.018.027-.035.018-.063.009-.374.013-.374-.027-.384.022-.374.022h-.4l-.374-.054-.054-.009-.035-.018-.018-.044-.009-.054-.031-.331.022-.339v-.339l-.013-.339.031-.331.022-.339v-.339l-.013-.339.044-1.009v-.339l.013-.339v-.339l-.009-.67-.022-.339v-.175Zm6.719-9.081.054-.026.085.044.282.085.295.063.29.049.295.063.089-.018.031.035-.049.331-.094.331-.059.331-.205.994-.12.67-.035.348-.089.331h-.059l-.094-.059-.3-.054-.29-.049-.3-.044-.282-.085-.1-.059-.027-.11.12-.577-.035-.044-.081-.018-.415-.076-.406-.067-.085-.044-.049.018-.11.352-.059.371-.076.367-.17.732-.031.38.027.044h.092l.21.081.221.063.455.094.035-.049.085-.264.04-.29.009-.094.059-.044.331.04.321.085.647.116.089.009.044.059-.063.331-.1.331-.076.331-.072.331-.04.331-.031.339-.089.331-.076.331-.04.339-.1.331-.053.027-.089-.027-.964-.2-.313-.12-.018-.04.044-.076.04-.245.031-.245.059-.089V227.2l-.339-.081-.362-.062-.343-.1-.331-.11-.357-.044-.344-.054-.7-.147-.331-.089-.352-.054-.1.018-.059.089-.067.236-.076.228-.044.11-.089.035-.286-.059-.29-.1-.3-.026-.286-.059-.089-.076-.022-.116.044-.3.089-.3.11-.612.081-.3.072-.3.053-.3.125-.6.091-.278.044-.11.094-.044.282.076.286.116.29.031.29.04h.085l.018.04-.044.358-.054.352.035.044h.085l.754.157.085.044.049-.018.11-.371.059-.38.175-.75.11-.38.049-.384-.066-.035-.11.013-.364-.112-.374-.094-.081-.009-.059.044-.059.367-.059.362-.081.022-.11-.031-.283-.085-.277-.1-.58-.1-.085.009-.022-.022.04-.339.094-.331.04-.331.049-.331.138-.663.049-.331.059-.331.049-.331.1-.331.059-.009.1.059.575.12.295.031.29.04h.11l.044.059-.059.331-.076.313.018.11.094.049.317.094.339.04.994.205.331.059.652.192.331.067.339.031.11-.013.059-.089.067-.313Zm3.645-6.738.25.089.17.089.054.04.031.044.009.054-.009.067-.053.2-.059.134-.067.134-.089.188-.625,1.488-.137.262-.089.183-.072.2-.085.273-.081.2-.2.451-.166.389-.12.26-.156.393-.12.26-.11.17-.035.063-.027.04-.049.018h-.059l-.17-.04-.221-.11-.331-.147-.214-.1-.151-.094-.054-.035-.031-.044-.022-.04v-.07l.044-.129.125-.157.04-.12v-.059l-.013-.044-.035-.035-.054-.044-.175-.1-.25-.116-.374-.147-.263-.081-.374-.147-.625-.264-.245-.125-.366-.166-.245-.125-.192-.063-.065-.007-.044.013-.044.031-.035.044-.067.11-.054.174-.067.11-.031.044-.04.022h-.031l-.054-.013-.17-.04-.232-.067-.321-.134-.214-.11-.138-.081-.053-.031-.044-.035-.022-.04.009-.067.063-.192.156-.239.094-.179.188-.442.089-.192.116-.321.035-.134.205-.509.134-.321.142-.317.053-.125.166-.367.067-.129.146-.315.125-.331.134-.321.063-.192.076-.277.094-.179.04-.044.044-.013h.049l.374.1.473.2.241.089.473.2.277.166.053.04.049.031.018.049v.059l-.04.166-.11.205-.076.157-.063.152-.1.21-.12.2-.04.022-.035.013h-.059l-.12-.022-.142-.089-.11-.054-.085-.035-.044-.009-.027.018-.11.214-.1.331-.076.227-.242.527-.085.221-.018.063.018.049.022.04.044.031.2.085.267.12.205.059.067.009h.051l.031-.027.04-.054.1-.157.053-.125.04-.12.076-.179.067-.183.04-.12.059-.116.134-.221.035-.044.04-.022h.061l.17.044.21.116.166.081.166.059.221.085.151.085.049.04.04.094-.009.067-.049.17-.129.214-.089.161-.059.166-.031.116-.1.286-.031.1.009.094.044.089.076.054.179.067.129.044.125.031.179.076.044.009h.035l.035-.013.022-.031.089-.232.11-.313.254-.607.076-.157.094-.221.027-.035.022-.031.009-.026-.013-.035-.125-.081-.11-.035-.11-.027-.134-.085-.044-.035-.027-.031v-.049l.018-.063.059-.157.081-.214.067-.161.095-.275.04-.11.085-.152.04-.049.049-.027.054-.009.067.009.183.059.221.157.179.094.183.067.241.081.188.081Zm7.9-11.332.21.188.2.179.027.035.031.049v.1l-.018.044-.027.049-.433.545-.254.264-.263.282-.221.29-.232.295v.009l-.236.255-.232.26-.035.031-.044.022h-.071l-.053-.009-.063-.027-.339-.308-.183-.152-.179-.161-.044-.076-.013-.072.013-.059.049-.089.049-.059.027-.076-.013-.072-.022-.044-.031-.049-.031-.035-.035-.031-.12-.04-.11-.044-.059-.013h-.059l-.059.013-.067.049-.21.277-.2.277-.527.54h0l-.2.25-.2.241-.031.094.04.094.072.116.063.11.049.04.054.022h.142l.059-.035.11-.134.053-.035.072-.027.085.013.081.031.188.161.188.147.179.161.175.147.063.067.013.085-.013.072-.04.063-.442.559-.482.577-.518.559-.442.552-.04.035-.063.031h-.076l-.089-.049-.2-.17-.2-.179-.221-.166-.214-.157-.063-.067-.022-.089.018-.081.04-.063.282-.362.027-.063-.013-.072-.236-.487-.116-.29-.129-.3-.134-.282-.129-.286-.142-.286-.134-.282-.129-.29-.138-.295-.147-.282-.17-.295-.044-.049-.067-.009-.089.044-.221.268-.081.054-.089.009-.076-.027-.04-.022-.21-.166-.221-.17-.406-.339-.067-.081-.022-.1.035-.089.2-.25.188-.25.232-.236.442-.469.214-.241.389-.522.013-.013.4-.451.049-.044.044-.022h.054l.059.013.6.2.348.089.331.089.339.067.344.076.331.089.331.094.331.1.331.094.331.11.321.116.331.11.321.1.3.063.29.054h.085l.054-.035.134-.161.134-.174.049-.031.059-.013h.156l.035.031.214.17Zm8.812-9.868-.035-.044-.194-.159-.2-.161-.179-.152-.172-.162-.072-.035-.081.022-.072.04-.054.054-.009.076.04.228.04.241.022.25.013.232.018.072.059.063.085.035.076.009.063-.022.3-.157.3-.142.053-.046.031-.094-.009-.089Zm4.529.786.129.255.12.236.013.044.009.059-.013.049-.018.04-.031.035-.044.035-.6.352-.331.151-.344.17-.313.192-.331.192h-.009l-.313.152-.308.161-.044.013h-.049l-.063-.018-.044-.026-.049-.049-.205-.411-.116-.21-.11-.21-.018-.085.013-.072.035-.049.081-.067.063-.035.049-.059.013-.072v-.049l-.009-.059-.013-.044-.022-.04-.1-.081-.085-.081-.049-.035-.053-.022-.059-.009-.081.022-.295.183-.282.188-.691.331h-.009l-.277.161-.273.152-.063.076v.1l.022.134.018.125.031.054.04.04.072.035.063.018.067-.013.151-.085.063-.013h.076l.076.04.072.067.12.214.125.205.11.214.11.2.035.085-.018.085-.04.063-.059.044-.616.362-.663.362-.683.331-.607.358-.054.018-.072.013-.076-.022-.067-.081-.129-.232-.12-.236-.147-.232-.142-.221-.035-.085.013-.089.044-.067.059-.044.393-.236.044-.049.013-.072-.044-.54v-.313l-.013-.331-.022-.313-.018-.313-.031-.321-.027-.308-.018-.317-.022-.321-.035-.313-.049-.339-.027-.063-.059-.031-.1.013-.3.17-.094.022-.089-.027-.059-.049-.031-.035-.134-.228-.142-.236-.258-.465-.031-.1.018-.1.067-.067.277-.166.263-.166.3-.134.58-.277.286-.147.552-.348.018-.009.536-.277.063-.022h.049l.049.013.049.035.492.4.29.205.282.2.29.183.295.192.277.2.273.205.277.214.273.205.273.228.258.221.268.221.263.21.258.17.254.152.076.022.063-.013.183-.1.188-.11.059-.009.059.009.049.013.053.022.044.018.022.04.142.236Zm-8.313,4.516.059.027.035.031.009.054-.013.072-.054.352-.1.321-.063.17-.054.166-.166.317-.2.282-.241.273-.228.273-.116.134-.129.116-.295.232-.29.2-.313.166-.5.2-.331.12-.357.072h-.352l-.357-.026-.361-.044-.331-.094-.331-.142-.308-.17-.286-.2-.151-.125-.12-.116-.25-.245-.241-.277-.21-.29-.161-.308-.134-.331-.2-.67-.022-.17-.009-.183.031-.179.072-.344.044-.348.089-.348.138-.317.183-.308.2-.286.221-.277.245-.25.277-.241.25-.188.263-.157.282-.152.286-.129.295-.089.317-.063.308-.018.3.009.089.009.027.013.17.192.1.138.1.147.156.192.17.192.134.116.129.129.142.2.027.063v.059l-.027.059-.035.054-.138.138-.38.29-.142.129-.21.166-.166.1-.063.026-.049.013h-.044l-.063-.031-.166-.17-.1-.147-.076-.152-.16-.179-.059-.027-.044-.009h-.044l-.054.009-.179.076-.125.081-.1.081-.094.089-.147.12-.142.129-.116.134-.1.143-.081.161-.063.17-.035.183-.022.175-.018.17.018.179.031.179.049.175.059.157.076.166.089.166.11.161.125.134.147.12.147.1.138.1.175.094.161.081.17.063.179.031h.166l.179-.04.522-.161.331-.152.161-.12.131-.13.138-.152.125-.166.11-.179.089-.183.076-.183.063-.2.035-.2.031-.049.022-.031.035-.018.067-.009h.2l.273.027.21.04.2.027.277.018Zm8.437-9.2h-.067l-.049-.013-.044-.027-.027-.059-.059-.166-.049-.232-.054-.175-.059-.166-.067-.228-.022-.175v-.116l.013-.031.059-.035.179-.081.282-.044.2-.049.192-.059.125-.059.331-.116.192-.059.268-.072.2-.049.192-.067.652-.192.282-.054.2-.049.321-.1.166-.049.156-.026.339-.013.331.018h.17l.179.013.317.04.331.085.308.129.277.166.273.205.125.11.134.094.241.236.1.134.089.143.166.3.11.313.035.161.1.331.089.331.044.339-.013.339-.009.166-.013.348-.044.339-.059.161-.081.147-.17.3-.183.286-.221.264-.236.232-.42.295-.3.157-.621.3-.166.059-.192.059-.267.089-.389.11-.258.094-.389.116-.138.022-.522.138-.652.183-.125.059-.129.049-.2.04h-.067l-.054-.013-.035-.027-.035-.059-.083-.172-.027-.116-.018-.12-.044-.179-.067-.161-.053-.116-.044-.11-.031-.17.009-.072.018-.044.049-.035.059-.035.166-.059.245-.013.16-.067.018-.035-.018-.031-.031-.049-.027-.049-.067-.192-.094-.26-.12-.376-.192-.652-.072-.264-.05-.2-.059-.192-.044-.273-.049-.2-.059-.192-.089-.26-.072-.245v-.049l-.009-.035-.04-.009-.166.031-.11.049-.116.063Zm14.911,1.567.044.264v.188l-.013.067-.022.049-.044.031-.063.027-.2.049-.147.018H4.269l-.21.013-1.6.17H2.162l-.2.013-.21.031-.282.059-.21.022-.492.044-.42.044-.286.022-.42.054-.286.022-.205-.013h-.1l-.04-.031-.022-.054-.044-.17-.009-.25-.027-.358-.018-.236.009-.175v-.067l.022-.049.022-.04.054-.027.134-.022.2.035.125-.022.053-.022.035-.031.013-.049.013-.067v-.205l-.022-.273-.049-.4-.059-.273-.053-.4-.067-.67-.013-.277-.031-.4-.013-.277-.04-.2-.027-.063-.031-.031-.049-.022-.059-.013h-.129l-.179.035h-.183l-.04-.022-.022-.027-.013-.054-.044-.17-.053-.232-.035-.348v-.245l.009-.174v-.062l.013-.059.022-.04.063-.027.2-.04.29.027h.2l.477-.049.21-.013.331-.054.134-.031.545-.067.348-.035.348-.027.134-.022.4-.035H2.23l.339-.027.344-.044.348-.035.2-.04.277-.067h.2L4,184.3l.031.031.022.044.094.38.054.509.035.255.054.509-.013.321-.013.067v.054l-.031.04-.053.022-.16.044-.241.009L3.6,186.6l-.166.018-.228.018-.232-.013-.04-.022-.031-.022-.027-.054-.04-.116.009-.166v-.129l-.009-.089-.013-.044-.031-.013H2.548l-.331.072-.232.044-.575.044-.236.035-.063.018-.031.035-.022.04v.054l.022.221.022.295.049.205.027.063.022.044.04.013.067.013.183.009.138-.013.125-.022.192-.018.188-.031.125-.022h.129l.258.009.059.013.04.022.022.054.044.17v.241l.009.183.027.174.035.236v.174l-.013.067-.063.081-.067.019-.17.035-.25-.009H2.133l-.17.027-.116.031-.3.049-.1.018-.076.054-.059.081-.009.094.031.192.022.134.031.125.018.192.013.044.013.035.031.022H1.5l.245-.035.331-.054.656-.072.175-.009.236-.027h.11l.034-.024.013-.147-.022-.11-.031-.11.013-.157.013-.059.013-.034.044-.022.063-.018.166-.027.228-.031.175-.018.282-.059.116-.022h.175l.067.013.049.031.031.04.027.063.04.188-.027.273v.2l.031.188.044.255.022.2Zm10.263.21-.04.3-.022.3-.027.175-.031.125-.027.063-.031.044-.04.022-.076.031h-.163l-.151-.027-.317-.059-.621-.044-.308-.059-.308-.067-.313-.013h-.321l-.308-.04-.295-.076-.089-.035-.018-.085-.018-.295.018-.3.009-.295.067-.3.027-.072.022-.035.059-.031.059-.013.245.031.245.026.076-.013h.044l.04-.049.013-.035.035-.358v-.358l.035-.358.089-.71.053-.352-.022-.067-.044-.04H12.6l-.059.022-.273.26-.286.26-.267.277-.263.268-.25.282-.277.268-.076.035-.089-.009L10.7,189l-.044-.04-.188-.221-.188-.241-.138-.264-.147-.264-.179-.228-.179-.241-.129-.273-.085-.183-.044-.089-.044-.022-.059.013-.059.022-.022.035-.027.384-.018.376-.035.376-.027.384-.063.371-.018.384.013.059.013.049.044.031.053.022.254.018H9.5l.134.022.044.022.04.04.009.1.009.295-.035.29v.3l-.04.3-.027.072-.031.031-.049.04-.059.013-.313-.013-.317-.049-.3-.076-.308-.067-.313.013H7.634l-.625-.134-.3-.013-.3-.049-.116-.04-.035-.022-.013-.059v-.156l.031-.143.076-.295-.018-.3v-.175l.031-.116.063-.085.11-.026.571.076.063-.059.009-.1.022-.339.013-.339.04-.331.031-.331.049-.331.059-.331.013-.339v-.348l.049-.331.013-.339v-.11l-.013-.049-.044-.022-.11-.018-.156.013-.129.013-.142-.022-.035-.013-.049-.04-.022-.049-.013-.059v-.17l.022-.134.067-.291v-.433l.035-.17.053-.085.059-.013h.361l.317.049.313.022.929.094.321.013.308.031.049.031.04.067.179.245.161.255.295.545.188.25.188.241.085.166.053.116.179.241.031.031.053.022.059-.013.049-.031.245-.179.214-.221.415-.456.442-.433.192-.25.11-.138.094-.094.059-.049.076-.009.308.049.308.059.313.013.313.022.625.081.317-.013h.156l.166.035.044.013.072.044.031.059.013.059-.013.3-.059.308-.035.29-.085.286v.027l-.027.056-.049.013h-.044l-.241.013h-.241l-.11.018-.04.031-.013.054-.049.331v.339l-.031.679-.049.331-.04.331-.049.331-.04.339-.031.331.013.331.018.085.054.013.044.013.468.1.063.027.044.022.031.04.013.059Zm2.924,1.93-.053-.035-.035-.031-.013-.044v-.067l.094-.277.1-.286.076-.286.12-.277.027-.059.04-.035.059-.027h.049l.125.031.11.067.241.089.063.013.053-.013.054-.022.035-.044.134-.313.022-.183v-.331l-.027-.152-.11-.331-.089-.317-.085-.331-.221-.63-.1-.321-.089-.317-.1-.307-.11-.331-.04-.089-.035-.031-.04-.022-.089-.027L18.1,187l-.188-.1-.1-.063-.031-.049v-.043l.031-.152.044-.129.11-.282.076-.286.12-.277.035-.044.044-.022h.11l.241.049.12.049.352.134.7.25.361.1.732.183.2.054.156.081.053.04.018.035v.125l-.059.331-.11.308-.081.331-.138.3h-.081l-.054-.044-.049-.027h-.077l-.059.031-.035.054v.076l.089.376.089.367.031.116.044.063.089.031.082-.039.085-.059.3-.26.3-.268.035-.054v-.044l-.022-.044-.059-.035-.12-.013-.044-.063.009-.142.04-.179.125-.317.1-.313.156-.295.053-.081.054-.013h.044l.361.072.352.125.706.232.71.25.352.11.348.142.04.022.035.031.013.072v.035l-.027.147-.053.138-.116.273-.067.295-.11.264-.022.04-.044.054-.044.013h-.059l-.11-.009-.116-.031-.214-.081-.094-.031-.094.018-.054.04-.2.166-.254.214-.258.2-.258.205-.25.21-.245.221-.282.179-.273.183-.477.461-.04.035-.035.049-.1.268-.094.26v.067l.018.063.04.049.054.035.236.049.21.089.049.035.035.04.022.054-.009.054-.076.286-.12.277-.076.295-.11.273-.022.031-.044.054-.063.009h-.044l-.308-.063-.3-.11-.575-.251-.3-.089-.308-.081-.594-.214-.317-.067-.12-.04Zm15.146,7.134-.232.317-.089.049-.11-.04-.3-.179-.282-.221-.29-.192-.58-.4-.562-.411-.282-.221-.286-.2-.29-.192-.295-.183-.308-.183-.562-.411-.308-.183-.282-.205-.059-.11.027-.1.151-.264.2-.232.151-.25.2-.221.085-.076.11.013.175.12.161.134.072.04.063-.027.25-.264.205-.295.183-.308.188-.3.2-.3.205-.295.221-.286.228-.277.221-.286.188-.3-.035-.059-.1-.035-.188-.129-.166-.161-.072-.094.009-.094.166-.255.166-.228.156-.26.188-.236.094-.059.116.026.258.17.236.21.531.348.245.192.25.188.267.166.552.317.245.192.059.11-.018.12-.175.25-.21.221-.151.264-.175.236-.094.059-.1-.022-.221-.12-.21-.147-.072-.059h-.059l-.205.26-.156.29-.2.26-.205.245-.54.826-.179.268-.2.264-.188.273-.081.1v.094l.258.236.313.2.3.2.313.161.1.049.089-.027.241-.313.245-.308.094-.067.1.013.295.17.277.214.29.179.267.21.049.1-.035.12-.205.331-.245.308-.221.321-.232.317Zm6.982,6.562-.21.188-.2.179-.04.027-.053.027h-.049l-.044-.009-.044-.018-.044-.031-.5-.492-.232-.282-.254-.29-.268-.25-.267-.264h0l-.228-.264-.232-.26-.026-.04-.018-.044v-.066l.013-.049.031-.059.344-.3.17-.166.179-.157.081-.04h.072l.059.022.085.059.049.054.072.031H38.7l.044-.018.054-.027.04-.026.031-.031.054-.116.053-.1.022-.059.009-.059v-.06l-.044-.072-.254-.236-.254-.228-.477-.581h0l-.228-.228-.214-.221-.089-.04-.1.031-.125.059-.116.049-.044.044-.027.049-.013.076v.027l.031.059.12.125.031.059.018.072-.022.085-.04.076-.179.17-.166.17-.179.157-.166.161-.072.059h-.1l-.072-.022-.059-.044-.509-.5-.518-.54-.5-.572-.5-.5-.031-.044-.027-.067v-.076l.063-.085.192-.183.2-.179.183-.2.179-.2.072-.059.089-.013.076.027.059.044.331.317.059.035h.072l.509-.183.3-.085.313-.1.295-.1.3-.1.3-.11.295-.1.3-.1.308-.1.295-.116.313-.138.053-.035.013-.063-.035-.094-.241-.25-.044-.085v-.091l.035-.072.027-.04.188-.192.192-.2.384-.367.085-.059.1-.009.085.049.228.221.228.214.21.26.415.487.214.236.477.442.013.013.406.442.035.054.018.044v.063l-.022.059-.258.577-.125.331-.125.321-.1.331-.11.331-.125.321-.129.317-.134.321-.129.317-.151.321-.147.308-.142.317-.138.308-.1.295-.085.282v.076l.031.059.147.151.161.152.026.054v.11l-.009.059-.009.044-.031.031-.192.2Zm8.364,1.977.013.059v.044l-.067.081-.308.228-.308.221-.321.2-.331.21-.295.232-.094.076-.228.12-.049.022H46.5l-.049-.022-.031-.031-.094-.1-.1-.166-.147-.286-.221-.245-.085-.11-.089-.161-.022-.049v-.035l.027-.04.04-.04.236-.236.258-.205.059-.063.031-.054v-.072l-.022-.049-.085-.11-.094-.1-.1-.076h-.04l-.072.027-.263.188-.263.2-.54.367-.273.17-.282.175-.277.166-.277.179-.258.188-.263.2-.089.026-.035.059.166.264.2.25.035.072-.027.063-.089.081-.166.11-.277.142-.268.179-.258.188-.067.044-.059-.018-.11-.11-.085-.143-.166-.295-.192-.268-.183-.273-.773-1.073-.214-.268-.081-.12-.081-.166.013-.076.089-.063.236-.17.258-.161.228-.188.11-.085.151-.072.059-.013h.044l.081.067.116.142.059.1.17.241h.054l.081-.063.277-.166.273-.183.277-.166.286-.17,1.353-.911.258-.188.044-.049.022-.049v-.081l-.022-.049-.11-.125-.12-.129-.063-.059-.081.009-.3.214-.175.11-.142.063-.063.018H43.8l-.054-.018-.049-.044-.11-.134-.072-.138-.161-.29-.2-.255L43,204.487l-.022-.063v-.031l.018-.035.049-.044.3-.221.321-.2.3-.236.295-.232.321-.214.331-.17.049-.022h.04l.04.026.035.04.214.255.175.29.2.277.205.273.161.29.175.29.2.277.205.273.54.853.188.282.183.286.188.282.389.544.214.264.11.138Zm3.442,9.877-.282.11-.059-.013-.067-.04-.063-.054-.049-.067-.161-.339-.04-.054-.054-.009-.134-.035-.12-.027-.321-.013-.96-.018-.652.013H47.734l-.321-.035-.317-.026H45.8l-.054-.009-.085-.035-.049-.057-.044-.063-.3-.67-.12-.331-.134-.339-.022-.081v-.081l.018-.076.04-.067.232-.255.221-.25.254-.228.245-.221.232-.245.221-.25.228-.245.236-.245.442-.5.236-.236.25-.232.228-.241.232-.245.236-.241.221-.25.044-.081v-.089l-.04-.094-.085-.1-.081-.094-.035-.11.022-.11.094-.081.258-.138.273-.1.273-.134.277-.094.067-.009.053.009.085.085.081.142.049.138.094.3.273.563.11.29.116.277.221.581.12.29.076.295.009.094-.067.059-.258.147-.54.228-.282.067-.116.031-.081-.054-.04-.094-.018-.072-.04-.17-.035-.044-.059-.026h-.063l-.049.022-.232.255-.468.5-.245.241-.5.465-.268.21-.263.221-.027.059.018.063.044.063.059.027.339-.013h.339l.339-.013.331-.009.674-.044.343.013.331.013.072-.022.049-.049.027-.063-.009-.067-.11-.134-.044-.063-.022-.081v-.089l.013-.035.081-.094.263-.129.286-.1.277-.125.286-.081h.12l.089.072.125.277.089.308.2.581.081.166.076.11.1.157.11.264.035.157.044.179.044.11.067.129.1.147.076.138.04.142-.018.11-.094.081-.258.147-.273.1Zm.129,2.367.018-.116.1-.081.29-.059.29-.04.286-.11.286-.059.1.031.049.1.116.295.072.313.044.308.054.317.241.916.142.607.035.313v.1l-.085.049-.273.089-.3.049-.282.085-.29.04H52.9l-.067-.081-.081-.232-.049-.25.018-.081-.026-.031-.348.044-.331.11-.352.072-1.027.236-.331.089-.348.089-.339.072-.344.076-.1-.013-.04.027.053.308.063.317v.12l-.072.063-.29.094-.295.059-.286.067-.295.031-.11-.013-.059-.089-.089-.3-.044-.317-.081-.3-.089-.308-.07-.3-.081-.3-.14-.621-.089-.308-.054-.308.026-.12.089-.059.29-.089.29-.04.286-.1.295-.058.11.022.072.11.059.277.067.286.054.027.089-.031.348-.072.678-.157.339-.072.687-.12.344-.11.331-.11.348-.035.348-.081.013-.059-.049-.1-.076-.236Zm-2.592,13.724-.286.009-.263.009h-.044l-.059-.013-.04-.035-.031-.035-.022-.044-.013-.054-.063-.692v-.755l-.04-.367-.031-.376v-.358l-.013-.348.009-.044.013-.049.044-.049.044-.031.063-.022.459-.009.236-.013h.241l.085.022.059.044.031.054.022.1v.065l.031.072.059.044.044.013.059.013H50.2l.116-.054.11-.044.053-.031.044-.04.035-.049.013-.085-.04-.348-.049-.331.009-.754v-.009l-.027-.321-.018-.308-.044-.089-.094-.04-.129-.035-.12-.035H50l-.054.022-.063.049-.044.049-.013.067.009.175-.013.067-.031.067-.072.049-.081.031-.245.013-.236.022h-.241l-.228.013H48.6l-.067-.049-.04-.063-.013-.072-.063-.715-.044-.75-.009-.76-.063-.706v-.054l.022-.067.054-.059.1-.026.263-.018.268-.009.273-.035.263-.035h.094l.076.049.04.072.013.072.044.456.022.063.059.04.509.188.282.129.3.129.29.11.29.12.3.11.29.11.29.12.3.12.3.1.331.1h.063l.053-.04.031-.094-.022-.348.022-.094.063-.067.072-.031.044-.013.263-.027.273-.026.531-.031.1.013.085.059.031.089.031.321.035.308-.009.331v.643l.009.321.076.647v.018l.018.608v.063l-.013.049-.035.035-.054.031-.571.273-.308.174-.3.166-.291.183-.3.183-.3.166-.3.157-.313.157-.3.157-.321.147-.313.138-.313.147-.315.144-.263.166-.245.161-.049.059-.013.063.013.21.022.221-.013.059-.031.049-.035.04-.044.04-.035.031h-.044l-.273.027Z" transform="translate(41.894 -184.091)" fill="#16191b"/>
        <path id="Path_11" data-name="Path 11" d="M-19.715,263.241l-.125.072-.035.031-.018.049v.059l.018.044.031.026.17.125.166.125.044.018h.059l.049-.031.027-.031.013-.031.031-.147.031-.157.035-.142.044-.143v-.054l-.035-.035-.044-.031-.044-.018-.044.018-.116.085-.125.09Zm14.138,6.6.081-.031.076-.035.063-.053.053-.067.035-.094.013-.089-.013-.085-.031-.076-.044-.067-.053-.063-.063-.054-.076-.044-.085-.035-.183-.05-.245-.076-.183-.049h-.049l-.049.013-.04.031-.027.044-.11.415-.035.179v.035l.013.035.031.018.031.013.094.027.063.022.245.067.129.045.094.031.089.013h.094Zm8.746.527-.12-.009H2.923l-.179.013H2.726l.009.013.018.022v.031l-.009.2-.009.081v.12l-.009.12-.031.157-.013.12v.282l-.022.509v.4l-.009.026-.013.022v.013h.018l.179.018.125.013.415.018h.11l.1-.013.094-.022.1-.045.089-.057.085-.072.072-.072.067-.081.059-.094.044-.094.067-.2.022-.11.018-.1.013-.11v-.11l-.013-.1-.018-.1-.022-.1-.031-.1-.035-.1-.04-.089-.059-.081-.063-.076-.076-.067-.089-.063-.094-.049-.089-.026-.1-.018-.11-.009h-.11Zm5.361.9.076-.022.081-.018.21-.026.081-.035.072-.045.059-.063.04-.076.027-.081.018-.094v-.1l-.013-.094-.027-.085-.044-.081-.059-.063-.063-.057-.076-.045-.089-.031h-.1l-.11.013-.081.013-.072.018-.11.013h-.38l-.031.013-.022.027-.009.035v.035l.009.12v.286l.013.205.013.081.013.12v.04l.018.026.022.013.035.009.11-.009H8.4Zm4.424.442.205.116.2.057.21.022.232-.013.236-.059.192-.09.179-.161.116-.174.1-.183.059-.232.013-.214-.031-.228-.04-.188-.094-.241-.134-.183-.166-.142-.166-.12-.236-.089-.188-.018-.273.035-.2.054-.221.111-.2.152-.129.166-.085.183-.031.11-.027.138-.018.125.009.161.018.166.049.175.054.134.059.11.081.111.11.11Zm12.321-5.315v.142l.009.044.035.04.049.027h.049l.035-.013.188-.094.188-.085.035-.031.022-.059V266.3l-.013-.04-.022-.026-.116-.1-.125-.1-.11-.1-.11-.11-.044-.022-.049.013-.044.022-.035.031-.009.05.022.142.022.152ZM-25.5,258l-.129.094-.031.018H-25.7l-.031-.009-.022-.018-.067-.054-.076-.089-.116-.161-.221-.192-.067-.089-.018-.031v-.022l.013-.028.022-.027.125-.17.138-.151.031-.045.013-.035v-.045l-.018-.031-.063-.057-.067-.057-.072-.035h-.022l-.04.022-.142.138-.142.148-.3.272-.151.129-.156.134-.156.125-.156.134L-27.6,258l-.142.148-.053.027-.018.04.125.147.147.134.031.04-.009.04-.044.059-.094.085-.156.116-.147.134-.142.138-.035.035h-.035l-.076-.059-.063-.081-.129-.166-.142-.147-.138-.152-.571-.59-.156-.142-.063-.067-.063-.094v-.05l.049-.044.129-.125.142-.12.12-.134.059-.063.089-.057.031-.013h.027l.054.035.085.076.044.059.125.129h.031l.044-.044.151-.125.151-.138.156-.125.16-.129.746-.684.142-.138.022-.035.009-.031v-.072l-.018-.027-.076-.067-.085-.067-.044-.031-.049.013-.166.156-.1.081-.081.053-.035.018h-.072l-.035-.022-.081-.072-.059-.081-.125-.161-.142-.138-.12-.157-.018-.035v-.018l.009-.022.027-.031.166-.166.179-.147.166-.174.161-.17.175-.161.192-.134.031-.018.022-.009.027.013.027.022.156.134.134.161.147.151.151.148.125.161.134.166.147.152.151.147.411.474.142.157.138.156.142.157.29.3.156.143.076.076.063.085.013.031v.027l-.035.053-.17.17-.17.161-.179.147-.179.157-.161.17Zm1.821,4.869-.1.134-.089.081-.035.022-.031.009h-.031l-.035-.018-.11-.072-.067-.057-.063-.063-.094-.09-.75-.663-.125-.134-.089-.089-.1-.081-.142-.1-.1-.085-.228-.21-.2-.174-.129-.12-.2-.17-.129-.12-.081-.1-.031-.035-.018-.022v-.031l.013-.031.059-.094.11-.11.151-.166.1-.11.085-.072.031-.027.031-.009h.027l.031.013.067.053.067.1.063.049.031.013h.027l.027-.013.035-.022.094-.081.116-.125.161-.192.1-.138.161-.192.277-.317.12-.12.17-.183.12-.12.076-.1.018-.035v-.031l-.009-.031-.018-.031-.053-.063-.094-.067-.054-.063-.022-.026v-.049l.018-.027.059-.094.085-.12.142-.161.11-.1.085-.067.031-.026.031-.018h.027l.035.018.1.076.11.144.085.089.228.2.094.089.166.129.072.049.258.221.161.143.156.148.063.059.183.17.063.063.156.144.166.138.16.142.1.076.147.1.085.09.018.031v.026l-.009.027-.134.2-.21.241-.1.125-.21.241-.151.129L-22.2,261l-.027.022h-.031l-.031-.013-.089-.053-.1-.109-.076-.076-.076-.069-.1-.1-.094-.11v-.049l.013-.031.035-.067.081-.067.053-.053.035-.044.013-.026v-.018l-.1-.11-.175-.12-.12-.091-.263-.245-.116-.094-.035-.022h-.059l-.027.022-.089.1-.125.134-.072.11-.018.035-.009.027.009.022.022.035.076.091.063.057.063.049.089.081.094.076.063.049.059.057.1.12.018.031v.027l-.013.031-.059.094-.11.1-.081.081-.067.085-.094.116-.081.076-.035.022h-.063l-.035-.018-.089-.063-.1-.12-.076-.085-.085-.067-.063-.04-.147-.116-.049-.035-.059-.013-.057.009-.044.035-.076.094-.054.067-.044.067-.081.089-.013.026-.013.022v.027l.013.018.12.1.161.126.308.272.076.075.11.1.018.022.013.018.013.013h.022l.072-.057.04-.059.035-.059.076-.063.031-.018.022-.009.031.009.031.022.081.063.11.091.081.071.142.1.059.045.072.081.022.034.009.035-.009.031-.018.035-.072.1-.134.1-.089.085-.076.094-.1.125-.085.094Zm5.174,3.591-.1.144-.1.134-.022.022-.027.022h-.057l-.031-.009-.031-.013-.361-.236-.179-.143-.192-.142-.2-.12-.2-.125h0l-.175-.134-.175-.125-.018-.022-.018-.026v-.072l.013-.04.17-.228.085-.12.089-.12.044-.031.044-.013h.035l.059.027.035.028.049.013.044-.013.027-.018.027-.022.022-.022.018-.022.018-.076.018-.067v-.076l-.009-.035-.039-.048-.183-.11-.183-.11-.366-.29h0l-.17-.11-.161-.11-.059-.013-.059.031-.067.049-.067.044-.022.031-.009.035v.05l.009.04.027.031.089.063.027.031.018.04v.053l-.013.049-.085.125-.081.125-.089.12-.081.11-.035.045-.049.013h-.044l-.04-.022-.37-.241-.384-.264-.376-.286-.366-.236-.027-.022-.022-.035-.009-.049.027-.059.094-.134.1-.134.089-.147.085-.144.035-.044.053-.018.049.009.04.022.241.151.04.013.044-.013.286-.175.17-.089.179-.1.166-.1.17-.1.17-.11.166-.1.17-.1.175-.1.166-.11.175-.12.027-.031v-.04l-.035-.053-.179-.12-.035-.045-.009-.057.013-.045.013-.026.089-.138.094-.144.188-.273.044-.044.063-.018.059.018.166.11.166.1.161.129.317.245.16.116.348.21h.009l.3.221.031.027.018.026v.067l-.085.384-.031.221-.035.21-.022.214-.027.221-.035.21-.04.21-.04.214-.04.21-.049.214-.049.205-.049.21-.044.205-.022.192-.013.183.009.05.027.031.11.076.116.072.022.031.009.035v.1l-.018.022-.094.144Zm6.048,2.917-.089.166-.076.17-.053.094-.044.067-.027.031-.027.018h-.081l-.094-.031-.085-.049-.17-.1-.352-.161-.166-.1-.166-.11-.179-.076-.188-.072-.17-.09-.157-.11-.044-.04.009-.053.053-.174.081-.17.072-.17.1-.156.031-.035.018-.018h.076l.134.071.138.067.044.009.027.009.035-.018.013-.018.1-.2.076-.21.1-.2.205-.392.11-.2v-.045l-.018-.03-.04-.018H-13.3l-.214.09-.221.089-.214.1-.214.1-.205.11-.221.094h-.054l-.049-.027-.027-.04-.013-.031-.063-.17-.059-.179-.022-.183-.027-.189-.053-.173-.053-.179-.018-.189-.009-.125-.009-.063-.018-.022h-.076l-.022.018-.1.214-.094.214-.1.21-.1.214-.12.2-.094.221v.067l.018.026.027.027.142.067.072.022.076.045.022.022.013.031-.018.063-.063.174-.085.161-.067.175-.089.166-.031.035-.027.013-.04.013h-.035l-.179-.076-.175-.1-.161-.111-.166-.11-.188-.063-.183-.063-.331-.214-.175-.072-.17-.1-.059-.049-.018-.022v-.035l.031-.093.049-.076.11-.157.059-.183.035-.1.044-.063.059-.035.072.009.317.17.049-.022.027-.059.089-.192.085-.192.1-.188.094-.188.1-.179.11-.183.085-.192.076-.2.1-.179.085-.192.027-.063v-.031l-.022-.022-.059-.035-.094-.026-.081-.018-.081-.045-.018-.013-.018-.035v-.072l.035-.1.044-.075.1-.153.063-.179.027-.076.059-.094.049-.04h.035l.031.009.125.045.053.022.175.1.175.081.522.259.183.076.175.085.022.031.009.049.049.183.035.183.054.38.053.188.059.179.013.116v.081l.054.178.013.026.027.027h.035l.035-.009.183-.049.175-.081.339-.175.357-.156.166-.1.089-.059.076-.031.044-.013.044.009.17.094.166.1.179.076.175.081.348.183.188.063.089.035.085.053.022.018.031.04v.076l-.072.175-.1.166-.085.161-.11.147-.009.013-.031.022h-.031l-.027-.009-.142-.045-.138-.049-.067-.013-.031.009-.018.027-.1.179-.076.2-.166.389-.1.183-.094.183-.1.183-.1.189-.094.188-.067.2-.009.053.027.018.022.018.25.161.031.026.022.022.009.031v.035Zm8.3.469-.053.2-.076.179-.12.17-.138.142-.166.111-.183.094-.188.044-.4.05h-.205l-.2-.031-.192-.045-.17-.053-.16-.054-.339-.072h-.035l-.022.022-.04.161-.04.152v.035l.022.022.2.04.134.035.057.026.027.018.027.031.009.031v.04l-.009.081-.035.089-.063.17-.035.179-.027.089-.031.081-.044.049h-.059l-.2-.04-.188-.067-.2-.04-.2-.035-.389-.116-.384-.1-.2-.035-.089-.018-.1-.04-.035-.022-.027-.026-.009-.031v-.045l.018-.11.031-.072.076-.188.027-.2.022-.11.031-.081.049-.027.067.013.134.035.129.049H-8.1l.04-.018.031-.031.018-.045.138-.384.1-.4.054-.2.059-.192.1-.4.053-.2.049-.2v-.04l-.013-.04-.027-.031-.031-.012-.151-.031-.063-.013-.076-.031-.031-.027-.018-.018v-.072l.027-.183.147-.536.009-.059.031-.022.2.022.2.059.188.063.192.057.192.045.2.04.38.125.38.116.389.11.2.05.192.057.183.1.166.11.166.125.129.148.12.17.085.188.035.192v.21l-.018.2Zm3.938,3.046-.013.166-.031.11-.018.04-.022.027-.031.013H-.5l-.089-.013-.089-.018-.129-.026-.986-.157-.179-.044-.12-.027-.129-.013-.179-.009-.129-.022-.3-.054-.258-.04-.175-.031-.258-.035-.175-.031-.12-.044-.044-.013-.027-.009-.018-.026v-.144l.035-.151.04-.221.027-.144.035-.1.013-.035.022-.026.018-.018h.035l.085.009.11.053h.116l.027-.013.018-.027.018-.04.035-.12.031-.17.035-.246.009-.17.035-.25.067-.415.035-.166.044-.245.04-.166.009-.125v-.04l-.013-.026-.027-.022-.031-.018-.076-.027h-.11l-.076-.026-.031-.009-.018-.022-.009-.018v-.321l.035-.214.035-.142.035-.1.013-.04.018-.031.018-.018h.04l.125.009.17.063.12.031.3.049.129.027.21.022h.085l.339.05.214.035.214.04.085.013.245.045.089.018.205.04.214.027.214.035.125.009H.1l.12.031.031.018.013.027.009.031v.241L.22,269.8l-.018.156-.049.313-.059.192-.018.04-.013.031-.027.018H-.1l-.142-.035-.11-.022-.1-.018-.138-.026-.138-.044-.018-.022-.013-.018-.009-.035v-.076l.031-.1.018-.072.009-.057v-.031l-.013-.013-.142-.035-.21-.009-.147-.013-.352-.067-.147-.018h-.04l-.027.018-.022.018-.013.031-.022.134-.035.179v.2l.022.013.035.018.11.035.085.013h.059l.116.018.12.013h.076l.076.018.151.05.031.018.018.022v.144l-.04.143-.022.11-.013.11-.018.147-.027.1-.018.04-.053.035h-.151l-.147-.049-.11-.026-.11-.013h-.053l-.188-.018H-2l-.053.018-.044.04-.018.053-.013.12-.009.085v.081l-.018.12v.054l.013.018.022.009.151.018.205.022.4.063.11.022.142.022.027.009.022.009h.018l.018-.013.031-.089v-.138l.031-.094.018-.031.013-.022h.076l.1.009.138.018.11.018.179.009.076.009.11.026.04.018.022.027.013.031v.04l-.009.12-.059.157-.031.12-.013.12-.013.161-.018.125Zm5.674-1.572-.009.1-.009.214-.013.21-.044.21-.076.2-.04.094-.076.2-.094.188-.067.081-.076.072-.161.138-.166.129-.183.11-.188.09-.308.089-.205.031-.424.05H2.9l-.25-.018h-.17l-.25-.013-.085-.013-.331-.027-.424-.018-.085.009H1.221l-.125-.018-.04-.013-.027-.018-.013-.022-.009-.04-.013-.11L1,273.15l.013-.076.013-.111v-.11l-.009-.081V272.7l.018-.11.018-.04.018-.022.035-.009.04-.009h.11l.147.04h.11l.018-.018v-.022l-.009-.035v-.577l.018-.42.013-.17.013-.125v-.138l.031-.17.013-.125v-.455l.013-.027v-.018l-.022-.013-.1-.018-.076.009-.081.013-.1-.009-.04-.013-.027-.018-.022-.027v-.147l.018-.148v-.371l.022-.11.013-.04.013-.027.018-.018.04-.009.12-.013.175.031.125.013H2.25l.17.013.125.013H2.67l.42.018.175.026.125.013h.317l.094.013.2.063.188.076.1.031.1.045.179.089.179.116.151.138.129.156.116.174.054.089.059.081.094.188.031.1.022.1.035.214Zm5.219,1.264v.076l.013.371v.188l.018.063-.027.04-.2.027h-.2l-.2.01h-.2l-.2.027-.2.031-.2.017-.2-.012-.04-.028-.018-.057-.009-.242v-.27l-.009-.026-.12-.156-.125-.152-.273-.289-.053-.04-.063-.013H8.184l-.054-.009H8.083l-.027.012-.018.018-.009.063.022.317.013.049.022.013H8.11l.151-.018h.147l.04.009.027.022.027.031.027.1v.255l.013.166v.192l-.022.026-.063.027-.2.031-.205.027h-.4l-.4.049-.4.031-.205.026h-.2l-.027-.031.009-.059-.009-.209v-.205l-.027-.2.009-.205.022-.03h.205l.156-.018.053-.028.009-.022v-.246l-.031-.21v-.4l-.054-.42v-.424l-.027-.21-.031-.209v-.063l-.009-.035H6.677l-.317.057H6.244l-.035-.031v-.063l-.018-.183-.027-.362v-.183l.009-.04.027-.031.044-.031.049-.013h.393l.4-.027.192-.009.2-.013.192-.009.2-.013.393-.05.6-.026.188.012.205.028.188.05.188.085.166.1.151.138.12.157.12.161.094.174.049.2.018.2v.246l-.044.232-.076.221-.129.21-.17.142-.214.138-.027.031-.013.04v.044l.018.031.183.221.192.21.035.027h.044l.2-.027.2-.009.063.022.018.022.009.04Zm5.169-2.247.018.21v.179l.018.21v.183l-.053.214-.134.367-.085.161-.116.179-.12.138-.147.142-.142.12-.179.1-.17.085-.175.094-.183.081-.188.045-.2.04-.2.031-.2.013h-.166l-.415-.049-.2-.035-.2-.05-.179-.063-.166-.1-.156-.12-.175-.116-.138-.125-.11-.174-.089-.161-.094-.183-.067-.174-.067-.2-.04-.183L11.3,271l-.013-.2.009-.205.027-.183.031-.232.04-.151.085-.221.072-.143.138-.166.125-.129.147-.143.138-.12.179-.12.151-.081.205-.085.166-.057.192-.057.183-.05.161-.027.228-.026h.393l.183.013.21.04.2.059.17.076.188.116.138.1.156.151.11.134.138.161.11.147.089.2.063.17.063.188Zm7.174-1.546.035.11.035.205v.317l-.009.1-.027.1-.094.188-.129.17-.138.157-.156.147-.166.125-.188.11-.089.045-.2.072-.1.031-.11.049-.21.085-.1.031-.116.027-.221.018h-.11l-.11.013-.232.009H20.44l-.331-.085-.116-.035-.022-.022-.018-.035-.049-.116-.094-.227-.11-.258-.067-.157v-.044l.022-.067.031-.063.031-.031.11-.04.076-.022.085-.018.11-.044.1-.045.072-.04.067-.035.11-.031h.035l.027.013.018.022.022.027.049.085.022.059.044.151.013.018.027.022h.059l.072-.009.161-.026.085-.018.151-.045.254-.1.11-.035.094-.045.085-.049.072-.081.044-.094.009-.1-.013-.1-.053-.072-.067-.05-.1-.018h-.214l-.205.022-.125.018-.282.11-.094.022-.11.022-.2.031-.2.013h-.21l-.2-.035-.089-.027-.094-.035-.089-.045-.081-.063-.142-.134-.125-.151-.11-.174-.044-.1-.027-.1-.018-.1v-.3l.013-.2.027-.094.044-.089.11-.17.125-.166.142-.138.081-.063.081-.067.072-.063.17-.12.183-.094.089-.04.2-.072.1-.027.1-.018.192-.049.1-.018.2-.027.295-.022.1.009.1.013.2.049.1.031.035.009.022.026.04.089.076.166.059.129.044.12.049.179.027.129v.04l-.013.013-.027.009-.116.049-.282.11-.116.049-.156.072-.12.027H21.3l-.022-.022-.027-.031-.044-.072-.072-.188-.018-.027-.022-.009h-.059l-.11.022-.221.059-.116.044-.166.067-.085.05-.067.063-.063.072-.049.081-.022.089.018.094.053.094.094.067.1.027h.12l.089-.018.205-.067.313-.089.29-.057.2-.027.2-.009.192.013.1.013.1.022.179.072.085.045.156.11.138.142.063.076.1.17Zm5.669-1.947.076.161.072.147.009.026v.035l-.009.031-.013.026-.018.022-.027.022-.38.21-.21.089-.221.1-.2.116-.205.111h0l-.2.089-.2.094-.027.009h-.031l-.035-.013-.027-.018-.027-.03-.12-.258-.067-.129-.063-.134-.009-.054.009-.044.022-.031.049-.04.04-.022.031-.035.009-.044v-.067l-.009-.027-.013-.028-.059-.053-.054-.049-.031-.022-.035-.013-.035-.009-.049.013-.188.109-.179.11-.429.183h0l-.175.1-.17.09-.04.044v.063l.013.085.009.081.018.035.027.026.044.022.04.013.04-.009.1-.049.04-.009h.044l.044.026.035.035.072.138.076.129.063.134.067.125.022.053-.013.049-.027.035-.035.026-.389.214-.415.214-.429.2-.384.214-.031.013h-.044l-.044-.013-.04-.05-.076-.147-.072-.148-.089-.147-.085-.142-.022-.054.009-.057.031-.04.04-.026.245-.144.031-.027.009-.045-.022-.331v-.4l-.009-.192v-.2l-.013-.2-.009-.192v-.2l-.009-.2-.018-.2-.027-.21-.013-.04-.035-.018h-.063l-.192.1-.059.013-.054-.018-.035-.031-.018-.022-.081-.142-.085-.147-.151-.295-.018-.063.013-.063.044-.04.175-.1.166-.1.188-.081.366-.166.179-.089.348-.205h.009l.339-.161.035-.013h.031l.031.009.031.022.3.254.179.134.17.13.179.12.179.125.17.129.166.134.17.138.166.134.166.142.156.144.16.138.161.134.16.11.156.1.044.013.04-.009.116-.063.12-.067h.035l.035.009.031.009.031.013.027.013.013.026.085.147Zm-2.5-1.376h-.031l.013-.026.018-.022h.013l.035.044-.009.031-.022-.009Zm.492.26.027-.027v-.031H26.68l-.018.026Zm4.567-4.391.116.147.094.156.013.072-.035.072-.12.09-.134.076-.067.013-.022.027.116.192.147.174.129.188.12.188.245.384.125.183.11.183.085.21.059.21.027.221v.214l-.035.21-.072.21-.076.2-.11.2-.129.174-.151.166-.17.134-.183.134-.2.12-.192.094-.214.081-.21.057-.221.035-.214.009-.221-.009-.221-.035-.2-.094-.192-.125-.161-.138-.16-.157-.138-.166-.134-.179-.236-.348-.12-.17-.12-.166-.1-.183-.125-.166-.059-.022-.063.027-.129.076-.125.067h-.059l-.059-.027-.018-.026-.013-.04-.17-.228-.17-.232-.027-.035-.013-.04v-.057l.031-.045.138-.142.156-.11.331-.21.166-.1.175-.1.3-.245.157-.11.175-.089.076-.022.059.035.11.134.089.152.094.147.094.142.022.04v.045l-.013.04-.022.026-.044.018-.232.157-.044.022-.009.04.1.2.129.183.12.192.376.552.166.183.17.134.205.12.214.044.21-.053.214-.116.183-.157.125-.183.049-.21-.022-.232-.081-.192-.134-.205-.221-.362-.129-.174-.125-.17-.221-.362-.018-.044-.027-.022-.344.232h-.057l-.049-.05-.11-.142-.11-.147-.12-.148-.1-.151-.013-.072.035-.059.151-.12.17-.094.166-.11.156-.11.652-.415.151-.12.166-.1.072-.018.063.031.11.142Zm5.545-.451L36.9,261l.072.1.018.035v.031l-.009.031-.022.035-.085.094-.072.059-.072.054-.1.081-.759.656-.147.11-.1.076-.094.089-.12.129-.1.085-.236.2-.2.17-.138.11-.2.175-.138.11-.11.063-.035.026-.027.013H34.2l-.031-.018-.085-.072-.094-.125-.142-.174-.094-.116-.059-.094-.022-.035v-.063l.018-.031.063-.063.11-.054.059-.057.018-.031.009-.027-.009-.026-.018-.035-.067-.11-.11-.134-.17-.188-.125-.12-.17-.183L33,261.448l-.1-.134-.16-.192-.1-.138-.089-.089-.035-.022H32.45l-.031.013-.067.045-.081.081-.067.044-.031.018h-.049l-.027-.022-.085-.072-.11-.1-.142-.166-.089-.12-.059-.094-.022-.035-.013-.031V260.4l.022-.035.089-.089.156-.089.1-.076.228-.2.1-.081.151-.147.059-.063.254-.227.166-.144.166-.138.067-.057.192-.161.072-.054.166-.134.161-.147.166-.143.089-.089.12-.134.1-.072.031-.013h.027l.027.013.183.156.21.242.11.116.21.241.11.17.018.035.018.031v.031l-.018.031-.067.081-.12.089-.085.067-.076.067-.11.089-.12.076H34.5l-.031-.018-.063-.045-.053-.089-.044-.057-.035-.045-.022-.018H34.23l-.12.089-.142.156-.1.11-.277.228-.11.1-.027.031v.057l.018.031.089.1.116.144.1.089.035.022.027.013h.027l.035-.018.1-.063.067-.057.059-.057.089-.081.085-.081.059-.058.063-.049.134-.09.031-.013h.027l.031.018.085.072.085.125.072.09.076.076.1.11.063.089.018.04v.063l-.022.035-.076.081-.134.085-.094.067-.081.076-.049.059-.134.134-.044.045-.018.053v.063l.027.049.081.085.059.063.063.054.081.089.022.018.018.013h.027l.022-.009.11-.1.147-.142.308-.268.085-.067.11-.1.027-.013.022-.009.013-.009v-.027l-.044-.081-.049-.05-.053-.045-.049-.085L35.5,260.7v-.026l.013-.027.027-.031.072-.072.1-.1.081-.072.12-.129.054-.054.089-.063.035-.018h.035l.031.013.035.022.089.081.081.148.076.1.081.085.11.11.081.094Zm3.544-4.23.053.049.263.26.129.134.053.035.009.049-.125.152-.147.134-.138.144-.142.138-.125.151-.12.157-.129.151-.156.125-.049.009-.049-.031-.17-.166-.166-.174-.022-.018-.027-.013-.2-.031-.2-.026-.4-.022h-.067l-.054.035-.072.067-.067.072-.044.031-.04.035-.009.027v.027l.04.049.232.214.044.026h.027l.018-.013.1-.11.11-.1.035-.022H38.8l.089.058.067.063.11.125.12.11.116.116.018.022v.031l-.027.063-.125.157-.129.156-.142.138-.147.134-.258.313-.273.295-.129.156-.147.134h-.041l-.035-.05-.151-.148-.142-.147-.157-.13-.134-.156V259.6l.035-.031.12-.11.1-.12.022-.059-.009-.022-.022-.026-.147-.152-.166-.129-.142-.156-.147-.152-.331-.268-.142-.156-.147-.152-.161-.134-.166-.129-.04-.05-.031-.018-.013.009-.192.259-.085.076h-.049l-.044-.045-.138-.12-.267-.245L35,257.533l-.022-.035v-.04l.009-.053.027-.045.282-.273.272-.29.134-.138.134-.147.134-.138.134-.147.25-.3.415-.429.147-.12.17-.125.17-.089.2-.067.188-.045h.205l.2.031.2.035.188.067.17.11.151.129.17.179.125.2.1.214.049.242-.027.221-.059.246v.04l.018.04.035.031.035.009.282.035.282.022H39.8l.035-.031.125-.156.138-.144.063-.026h.027l.031.022Zm-2.46.509.04-.071.044-.068.134-.161.035-.081.022-.08v-.086l-.022-.085-.035-.081-.049-.081-.067-.071-.076-.063-.081-.041-.089-.03-.085-.01h-.085l-.089.018-.089.035-.076.067-.072.091-.049.063-.04.063-.072.089-.076.076-.063.05-.059.044-.081.081-.013.031v.031l.018.031.022.026.089.081.059.063.057.053.085.085.151.138.063.049.089.075.031.028.031.009H37.5l.031-.018.076-.085.059-.053.049-.054.081-.081Z" transform="translate(43.182 -176.761)" fill="#16191b"/>
      </g>
    </g>
    <g id="Group_1" data-name="Group 1" transform="translate(6.627 15.463)">
      <path id="Path_2" data-name="Path 2" d="M-5.436,237.48l2.513-5.722a34.16,34.16,0,0,1,7.3,4.847,11.69,11.69,0,0,0,4.246,2.6l2.692,6.263c-4.865.362-7.522-1.46-10.772-4.069a27.841,27.841,0,0,0-5.973-3.909" transform="translate(39.462 -193.152)" fill="#16191b"/>
      <path id="Path_3" data-name="Path 3" d="M11.818,238.3a14.051,14.051,0,0,1-2.727.411l2.514,5.843a30.524,30.524,0,0,0,3.125-.7Z" transform="translate(40.981 -192.468)" fill="#16191b"/>
      <path id="Path_4" data-name="Path 4" d="M-4.066,231.213c-.875-.371-1.821-.747-2.888-1.121l-2.79,5.682c1.192.4,2.232.786,3.16,1.171Z" transform="translate(39.012 -193.326)" fill="#16191b"/>
      <path id="Path_5" data-name="Path 5" d="M-3.6,210.386S10.747,236.5,17.554,246.371s12.5,8.894,13.548,8.894,8.862-1.255,9.1-10.635a11.338,11.338,0,0,0-4.027-9.036,6.691,6.691,0,0,1-2.638-6.4,6.74,6.74,0,0,0-2.5,5.463c.156,2.412,2.228,2.6,3.263,3.225.906.552,3.04,2.966,2.777,5.253-.009.2,1.75,1.872.625,2.81a.963.963,0,0,1,.96.861,6.075,6.075,0,0,1-3.951,5.6c-.9.277-1.388-1.112-1.179-1.671-2,1.282-5.7.214-8.545-2.6S-.528,203.962-.528,203.962Z" transform="translate(39.654 -196.057)" fill="#16191b"/>
      <path id="Path_6" data-name="Path 6" d="M22.289,244c4.214,6.794,8.746,6.977,8.746,6.977a7.371,7.371,0,0,0,3.352-.607,3.481,3.481,0,0,1,0,2.01c2.268-.974,2.786-2.917,2.982-4.86a3.306,3.306,0,0,1-1.683,1.943c-.357-1.436.612-1.259.866-3.194a2.276,2.276,0,0,0-1.384-2.059c-1.036-.518-2.526-1.818-2.335-3.175a2.085,2.085,0,0,0-.906,1.6c.076,1.451,2.254,2.528,2.527,3.39.4,1.527-.389,2.078-1.491,2.078-2.075-.129-6.482-4.217-9.008-9.278S3.474,196.8,3.474,196.8L.041,203.354S18.08,237.208,22.295,244" transform="translate(40.035 -196.805)" fill="#16191b"/>
      <path id="Path_7" data-name="Path 7" d="M29.743,214.174c-.634.723-.183,2.39-.594,3.029-.3.465-1.983,1.988-1.884,3.524s2.872,3.324,2.825,4.615a3.888,3.888,0,0,1-1.415,2.381s.571-2.631-.273-3.323a3.4,3.4,0,0,1-1.143,2.483c-.589.4-1.576,1.853,0,5.312a9.116,9.116,0,0,1,2.831-5.012c.643.1,1.436.746,1.29,2.631s.892,2.519,1.638,3.792c-.148-2.054,1.884-3.739,2.43-3.046a32.1,32.1,0,0,0-.835-4.467,2.175,2.175,0,0,0-.5-.894,4.048,4.048,0,0,0-.844,1.836c-.1.942-.5.8-.5.8a4.3,4.3,0,0,1-.25-2.681,3.232,3.232,0,0,0-.348-3.424c-.892-1.095-1.3-1.639-1.246-2.48a2.95,2.95,0,0,0,0,2.43,2.267,2.267,0,0,1-1.036-3.424c.71-1.054-.147-4.069-.147-4.069" transform="translate(42.791 -194.99)" fill="#16191b"/>
      <path id="Path_8" data-name="Path 8" d="M25.5,228.822c-.693,1.988-.245,5.508,1.589,7.147.348-.147.7-.8,1.241-.994-1.089-1.193-1.567-4.119-1.567-4.119-.317.746-1.357-1.143-1.259-2.032" transform="translate(42.664 -193.459)" fill="#16191b"/>
      <path id="Path_9" data-name="Path 9" d="M36.049,229.542s-2.567,2.015-2.58,3.274a12.756,12.756,0,0,1,3.719,8.585,15.048,15.048,0,0,1-.826,5.311s2.366-2.886,2.514-4.368,0-5.9,0-5.9-.5,1.193-1.29,1.436c-.442.1-.442-.876-.442-.876a4.427,4.427,0,0,1,1.29-1.1c-1.736-1.737-2.532-2.828-2.379-6.352" transform="translate(43.529 -193.384)" fill="#16191b"/>
      <path id="Path_10" data-name="Path 10" d="M-1.073,211.076c-3.656,5.941-6.687,12.15-9.481,17.9l-3.282,6.643c-3.79,7.392-7.511,13.227-11.5,13.227-1.782,0-4.767-.634-4.767-4.882a8.407,8.407,0,0,1,3.571-6.208,14.029,14.029,0,0,1,8.562-2.488,22.3,22.3,0,0,1,2.834.161l2.982-5.753c-9.057-1.635-14.745.7-18.043,3.162a14.369,14.369,0,0,0-6.035,11.127,10.618,10.618,0,0,0,3.558,8.442,11.241,11.241,0,0,0,7.344,2.572c7.66,0,12.428-7.511,17.6-17.831l2.723-5.552c2.281-4.694,4.723-9.7,7.522-14.562Z" transform="translate(36.243 -195.313)" fill="#16191b"/>
    </g>
  </g>
</svg>
